<?xml version="1.0" encoding="UTF-8" standalone="no"?>
<!-- Created with Inkscape (http://www.inkscape.org/) -->

<svg
   xmlns:dc="http://purl.org/dc/elements/1.1/"
   xmlns:cc="http://creativecommons.org/ns#"
   xmlns:rdf="http://www.w3.org/1999/02/22-rdf-syntax-ns#"
   xmlns:svg="http://www.w3.org/2000/svg"
   xmlns="http://www.w3.org/2000/svg"
   xmlns:sodipodi="http://sodipodi.sourceforge.net/DTD/sodipodi-0.dtd"
   xmlns:inkscape="http://www.inkscape.org/namespaces/inkscape"
   sodipodi:docname="chessclock.svg"
   inkscape:version="0.91 r13725"
   version="1.1"
   id="svg4240"
   viewBox="0 0 4535.4331 3118.1103"
   height="880mm"
   width="1280mm">
  <sodipodi:namedview
     inkscape:snap-midpoints="true"
     inkscape:snap-smooth-nodes="true"
     inkscape:object-nodes="true"
     inkscape:snap-intersection-paths="true"
     inkscape:object-paths="true"
     inkscape:window-maximized="1"
     inkscape:window-y="0"
     inkscape:window-x="0"
     inkscape:window-height="1000"
     inkscape:window-width="1920"
     showgrid="false"
     inkscape:current-layer="layer1"
     inkscape:document-units="mm"
     inkscape:cy="2672.5796"
     inkscape:cx="3553.4919"
     inkscape:zoom="0.5"
     inkscape:pageshadow="2"
     inkscape:pageopacity="0.0"
     borderopacity="1.0"
     bordercolor="#666666"
     pagecolor="#ffffff"
     id="base"
     inkscape:snap-nodes="true"
     showguides="true"
     inkscape:guide-bbox="true"
     inkscape:snap-global="false" />
  <title
     id="title4788">Découpage Laser</title>
  <defs
     id="defs4242" />
  <metadata
     id="metadata4245">
    <rdf:RDF>
      <cc:Work
         rdf:about="">
        <dc:format>image/svg+xml</dc:format>
        <dc:type
           rdf:resource="http://purl.org/dc/dcmitype/StillImage" />
        <dc:title>Découpage Laser</dc:title>
        <dc:creator>
          <cc:Agent>
            <dc:title />
          </cc:Agent>
        </dc:creator>
        <dc:publisher>
          <cc:Agent>
            <dc:title>Fablab Lannion</dc:title>
          </cc:Agent>
        </dc:publisher>
        <dc:source>http://fablab-lannion.org:8080/wiki/index.php?title=Chaine_logiciel_pour_d%C3%A9coupeuse_laser#Inkscape</dc:source>
        <dc:contributor>
          <cc:Agent>
            <dc:title>JJL</dc:title>
          </cc:Agent>
        </dc:contributor>
        <cc:license
           rdf:resource="http://creativecommons.org/licenses/by-sa/3.0/" />
      </cc:Work>
      <cc:License
         rdf:about="http://creativecommons.org/licenses/by-sa/3.0/">
        <cc:permits
           rdf:resource="http://creativecommons.org/ns#Reproduction" />
        <cc:permits
           rdf:resource="http://creativecommons.org/ns#Distribution" />
        <cc:requires
           rdf:resource="http://creativecommons.org/ns#Notice" />
        <cc:requires
           rdf:resource="http://creativecommons.org/ns#Attribution" />
        <cc:permits
           rdf:resource="http://creativecommons.org/ns#DerivativeWorks" />
        <cc:requires
           rdf:resource="http://creativecommons.org/ns#ShareAlike" />
      </cc:License>
    </rdf:RDF>
  </metadata>
  <g
     inkscape:label="Cut"
     inkscape:groupmode="layer"
     id="layer1"
     transform="translate(0,2065.7481)">
    <path
       d="M 284.14685, 4898.3579 L 284.14685, 4926.86378987 M 284.14685, 4937.49371113 L 284.14685, 4965.999601 M 294.723885522, 4898.3579 L 294.723885522, 4926.86378987 M 294.723885522, 4937.49371113 L 294.723885522, 4965.999601 M 305.300921045, 4898.3579 L 305.300921045, 4926.86378987 M 305.300921045, 4937.49371113 L 305.300921045, 4965.999601 M 315.877956567, 4898.3579 L 315.877956567, 4926.86378987 M 315.877956567, 4937.49371113 L 315.877956567, 4965.999601 M 326.45499209, 4898.3579 L 326.45499209, 4926.86378987 M 326.45499209, 4937.49371113 L 326.45499209, 4965.999601 M 337.032027612, 4898.3579 L 337.032027612, 4926.86378987 M 337.032027612, 4937.49371113 L 337.032027612, 4965.999601 M 347.609063134, 4898.3579 L 347.609063134, 4926.86378987 M 347.609063134, 4937.49371113 L 347.609063134, 4965.999601 M 358.186098657, 4898.3579 L 358.186098657, 4926.86378987 M 358.186098657, 4937.49371113 L 358.186098657, 4965.999601 M 368.763134179, 4898.3579 L 368.763134179, 4926.86378987 M 368.763134179, 4937.49371113 L 368.763134179, 4965.999601 M 379.340169701, 4898.3579 L 379.340169701, 4926.86378987 M 379.340169701, 4937.49371113 L 379.340169701, 4965.999601 M 389.917205224, 4898.3579 L 389.917205224, 4926.86378987 M 389.917205224, 4937.49371113 L 389.917205224, 4965.999601 M 400.494240746, 4898.3579 L 400.494240746, 4926.86378987 M 400.494240746, 4937.49371113 L 400.494240746, 4965.999601 M 411.071276269, 4898.3579 L 411.071276269, 4926.86378987 M 411.071276269, 4937.49371113 L 411.071276269, 4965.999601 M 421.648311791, 4898.3579 L 421.648311791, 4926.86378987 M 421.648311791, 4937.49371113 L 421.648311791, 4965.999601 M 432.225347313, 4898.3579 L 432.225347313, 4926.86378987 M 432.225347313, 4937.49371113 L 432.225347313, 4965.999601 M 442.802382836, 4898.3579 L 442.802382836, 4926.86378987 M 442.802382836, 4937.49371113 L 442.802382836, 4965.999601 M 453.379418358, 4898.3579 L 453.379418358, 4926.86378987 M 453.379418358, 4937.49371113 L 453.379418358, 4965.999601 M 463.956453881, 4898.3579 L 463.956453881, 4926.86378987 M 463.956453881, 4937.49371113 L 463.956453881, 4965.999601 M 474.533489403, 4898.3579 L 474.533489403, 4926.86378987 M 474.533489403, 4937.49371113 L 474.533489403, 4965.999601 M 485.110524925, 4898.3579 L 485.110524925, 4926.86378987 M 485.110524925, 4937.49371113 L 485.110524925, 4965.999601 M 495.687560448, 4898.3579 L 495.687560448, 4926.86378987 M 495.687560448, 4937.49371113 L 495.687560448, 4965.999601 M 506.26459597, 4898.3579 L 506.26459597, 4926.86378987 M 506.26459597, 4937.49371113 L 506.26459597, 4965.999601 M 516.841631493, 4898.3579 L 516.841631493, 4926.86378987 M 516.841631493, 4937.49371113 L 516.841631493, 4965.999601 M 527.418667015, 4898.3579 L 527.418667015, 4926.86378987 M 527.418667015, 4937.49371113 L 527.418667015, 4965.999601 M 537.995702537, 4898.3579 L 537.995702537, 4926.86378987 M 537.995702537, 4937.49371113 L 537.995702537, 4965.999601 M 548.57273806, 4898.3579 L 548.57273806, 4926.86378987 M 548.57273806, 4937.49371113 L 548.57273806, 4965.999601 M 559.149773582, 4898.3579 L 559.149773582, 4926.86378987 M 559.149773582, 4937.49371113 L 559.149773582, 4965.999601 M 569.726809104, 4898.3579 L 569.726809104, 4926.86378987 M 569.726809104, 4937.49371113 L 569.726809104, 4965.999601 M 580.303844627, 4898.3579 L 580.303844627, 4926.86378987 M 580.303844627, 4937.49371113 L 580.303844627, 4965.999601 M 590.880880149, 4898.3579 L 590.880880149, 4926.86378987 M 590.880880149, 4937.49371113 L 590.880880149, 4965.999601 M 601.457915672, 4898.3579 L 601.457915672, 4926.86378987 M 601.457915672, 4937.49371113 L 601.457915672, 4965.999601 M 612.034951194, 4898.3579 L 612.034951194, 4926.86378987 M 612.034951194, 4937.49371113 L 612.034951194, 4965.999601 M 622.611986716, 4898.3579 L 622.611986716, 4926.86378987 M 622.611986716, 4937.49371113 L 622.611986716, 4965.999601 M 633.189022239, 4898.3579 L 633.189022239, 4926.86378987 M 633.189022239, 4937.49371113 L 633.189022239, 4965.999601 M 643.766057761, 4898.3579 L 643.766057761, 4926.86378987 M 643.766057761, 4937.49371113 L 643.766057761, 4965.999601 M 654.343093284, 4898.3579 L 654.343093284, 4926.86378987 M 654.343093284, 4937.49371113 L 654.343093284, 4965.999601 M 664.920128806, 4898.3579 L 664.920128806, 4926.86378987 M 664.920128806, 4937.49371113 L 664.920128806, 4965.999601 M 675.497164328, 4898.3579 L 675.497164328, 4926.86378987 M 675.497164328, 4937.49371113 L 675.497164328, 4965.999601 M 686.074199851, 4898.3579 L 686.074199851, 4926.86378987 M 686.074199851, 4937.49371113 L 686.074199851, 4965.999601 M 696.651235373, 4898.3579 L 696.651235373, 4926.86378987 M 696.651235373, 4937.49371113 L 696.651235373, 4965.999601 M 707.228270896, 4898.3579 L 707.228270896, 4926.86378987 M 707.228270896, 4937.49371113 L 707.228270896, 4965.999601 M 717.805306418, 4898.3579 L 717.805306418, 4926.86378987 M 717.805306418, 4937.49371113 L 717.805306418, 4965.999601 M 728.38234194, 4898.3579 L 728.38234194, 4926.86378987 M 728.38234194, 4937.49371113 L 728.38234194, 4965.999601 M 738.959377463, 4898.3579 L 738.959377463, 4926.86378987 M 738.959377463, 4937.49371113 L 738.959377463, 4965.999601 M 749.536412985, 4898.3579 L 749.536412985, 4926.86378987 M 749.536412985, 4937.49371113 L 749.536412985, 4965.999601 M 760.113448507, 4898.3579 L 760.113448507, 4926.86378987 M 760.113448507, 4937.49371113 L 760.113448507, 4965.999601 M 770.69048403, 4898.3579 L 770.69048403, 4926.86378987 M 770.69048403, 4937.49371113 L 770.69048403, 4965.999601 M 781.267519552, 4898.3579 L 781.267519552, 4926.86378987 M 781.267519552, 4937.49371113 L 781.267519552, 4965.999601 M 791.844555075, 4898.3579 L 791.844555075, 4926.86378987 M 791.844555075, 4937.49371113 L 791.844555075, 4965.999601 M 802.421590597, 4898.3579 L 802.421590597, 4926.86378987 M 802.421590597, 4937.49371113 L 802.421590597, 4965.999601 M 812.998626119, 4898.3579 L 812.998626119, 4926.86378987 M 812.998626119, 4937.49371113 L 812.998626119, 4965.999601 M 823.575661642, 4898.3579 L 823.575661642, 4926.86378987 M 823.575661642, 4937.49371113 L 823.575661642, 4965.999601 M 834.152697164, 4898.3579 L 834.152697164, 4926.86378987 M 834.152697164, 4937.49371113 L 834.152697164, 4965.999601 M 844.729732687, 4898.3579 L 844.729732687, 4926.86378987 M 844.729732687, 4937.49371113 L 844.729732687, 4965.999601 M 855.306768209, 4898.3579 L 855.306768209, 4926.86378987 M 855.306768209, 4937.49371113 L 855.306768209, 4965.999601 M 865.883803731, 4898.3579 L 865.883803731, 4926.86378987 M 865.883803731, 4937.49371113 L 865.883803731, 4965.999601 M 876.460839254, 4898.3579 L 876.460839254, 4926.86378987 M 876.460839254, 4937.49371113 L 876.460839254, 4965.999601 M 887.037874776, 4898.3579 L 887.037874776, 4926.86378987 M 887.037874776, 4937.49371113 L 887.037874776, 4965.999601 M 897.614910299, 4898.3579 L 897.614910299, 4926.86378987 M 897.614910299, 4937.49371113 L 897.614910299, 4965.999601 M 908.191945821, 4898.3579 L 908.191945821, 4926.86378987 M 908.191945821, 4937.49371113 L 908.191945821, 4965.999601 M 918.768981343, 4898.3579 L 918.768981343, 4926.86378987 M 918.768981343, 4937.49371113 L 918.768981343, 4965.999601 M 929.346016866, 4898.3579 L 929.346016866, 4926.86378987 M 929.346016866, 4937.49371113 L 929.346016866, 4965.999601 M 939.923052388, 4898.3579 L 939.923052388, 4926.86378987 M 939.923052388, 4937.49371113 L 939.923052388, 4965.999601 M 950.50008791, 4898.3579 L 950.50008791, 4926.86378987 M 950.50008791, 4937.49371113 L 950.50008791, 4965.999601 M 961.077123433, 4898.3579 L 961.077123433, 4926.86378987 M 961.077123433, 4937.49371113 L 961.077123433, 4965.999601 M 971.654158955, 4898.3579 L 971.654158955, 4926.86378987 M 971.654158955, 4937.49371113 L 971.654158955, 4965.999601 M 982.231194478, 4898.3579 L 982.231194478, 4926.86378987 M 982.231194478, 4937.49371113 L 982.231194478, 4965.999601 M 992.80823, 4898.3579 L 992.80823, 4926.86378987 M 992.80823, 4937.49371113 L 992.80823, 4965.999601 M 289.435367761, 4908.98782126 L 289.435367761, 4955.36967974 M 300.012403284, 4908.98782126 L 300.012403284, 4955.36967974 M 310.589438806, 4908.98782126 L 310.589438806, 4955.36967974 M 321.166474328, 4908.98782126 L 321.166474328, 4955.36967974 M 331.743509851, 4908.98782126 L 331.743509851, 4955.36967974 M 342.320545373, 4908.98782126 L 342.320545373, 4955.36967974 M 352.897580896, 4908.98782126 L 352.897580896, 4955.36967974 M 363.474616418, 4908.98782126 L 363.474616418, 4955.36967974 M 374.05165194, 4908.98782126 L 374.05165194, 4955.36967974 M 384.628687463, 4908.98782126 L 384.628687463, 4955.36967974 M 395.205722985, 4908.98782126 L 395.205722985, 4955.36967974 M 405.782758507, 4908.98782126 L 405.782758507, 4955.36967974 M 416.35979403, 4908.98782126 L 416.35979403, 4955.36967974 M 426.936829552, 4908.98782126 L 426.936829552, 4955.36967974 M 437.513865075, 4908.98782126 L 437.513865075, 4955.36967974 M 448.090900597, 4908.98782126 L 448.090900597, 4955.36967974 M 458.667936119, 4908.98782126 L 458.667936119, 4955.36967974 M 469.244971642, 4908.98782126 L 469.244971642, 4955.36967974 M 479.822007164, 4908.98782126 L 479.822007164, 4955.36967974 M 490.399042687, 4908.98782126 L 490.399042687, 4955.36967974 M 500.976078209, 4908.98782126 L 500.976078209, 4955.36967974 M 511.553113731, 4908.98782126 L 511.553113731, 4955.36967974 M 522.130149254, 4908.98782126 L 522.130149254, 4955.36967974 M 532.707184776, 4908.98782126 L 532.707184776, 4955.36967974 M 543.284220299, 4908.98782126 L 543.284220299, 4955.36967974 M 553.861255821, 4908.98782126 L 553.861255821, 4955.36967974 M 564.438291343, 4908.98782126 L 564.438291343, 4955.36967974 M 575.015326866, 4908.98782126 L 575.015326866, 4955.36967974 M 585.592362388, 4908.98782126 L 585.592362388, 4955.36967974 M 596.16939791, 4908.98782126 L 596.16939791, 4955.36967974 M 606.746433433, 4908.98782126 L 606.746433433, 4955.36967974 M 617.323468955, 4908.98782126 L 617.323468955, 4955.36967974 M 627.900504478, 4908.98782126 L 627.900504478, 4955.36967974 M 638.47754, 4908.98782126 L 638.47754, 4955.36967974 M 649.054575522, 4908.98782126 L 649.054575522, 4955.36967974 M 659.631611045, 4908.98782126 L 659.631611045, 4955.36967974 M 670.208646567, 4908.98782126 L 670.208646567, 4955.36967974 M 680.78568209, 4908.98782126 L 680.78568209, 4955.36967974 M 691.362717612, 4908.98782126 L 691.362717612, 4955.36967974 M 701.939753134, 4908.98782126 L 701.939753134, 4955.36967974 M 712.516788657, 4908.98782126 L 712.516788657, 4955.36967974 M 723.093824179, 4908.98782126 L 723.093824179, 4955.36967974 M 733.670859701, 4908.98782126 L 733.670859701, 4955.36967974 M 744.247895224, 4908.98782126 L 744.247895224, 4955.36967974 M 754.824930746, 4908.98782126 L 754.824930746, 4955.36967974 M 765.401966269, 4908.98782126 L 765.401966269, 4955.36967974 M 775.979001791, 4908.98782126 L 775.979001791, 4955.36967974 M 786.556037313, 4908.98782126 L 786.556037313, 4955.36967974 M 797.133072836, 4908.98782126 L 797.133072836, 4955.36967974 M 807.710108358, 4908.98782126 L 807.710108358, 4955.36967974 M 818.287143881, 4908.98782126 L 818.287143881, 4955.36967974 M 828.864179403, 4908.98782126 L 828.864179403, 4955.36967974 M 839.441214925, 4908.98782126 L 839.441214925, 4955.36967974 M 850.018250448, 4908.98782126 L 850.018250448, 4955.36967974 M 860.59528597, 4908.98782126 L 860.59528597, 4955.36967974 M 871.172321493, 4908.98782126 L 871.172321493, 4955.36967974 M 881.749357015, 4908.98782126 L 881.749357015, 4955.36967974 M 892.326392537, 4908.98782126 L 892.326392537, 4955.36967974 M 902.90342806, 4908.98782126 L 902.90342806, 4955.36967974 M 913.480463582, 4908.98782126 L 913.480463582, 4955.36967974 M 924.057499104, 4908.98782126 L 924.057499104, 4955.36967974 M 934.634534627, 4908.98782126 L 934.634534627, 4955.36967974 M 945.211570149, 4908.98782126 L 945.211570149, 4955.36967974 M 955.788605672, 4908.98782126 L 955.788605672, 4955.36967974 M 966.365641194, 4908.98782126 L 966.365641194, 4955.36967974 M 976.942676716, 4908.98782126 L 976.942676716, 4955.36967974 M 987.519712239, 4908.98782126 L 987.519712239, 4955.36967974 "
       style="stroke:#000000;stroke-width:0.35433070866;fill:none"
       id="path4632">
      <desc
         id="desc4634">Hinge cut parameters: actual(requested)
cut length: 13.09 mm (19.00 mm)
gap length: 3.00 mm (3.00 mm)
separation distance: 1.49 mm (1.50 mm)</desc>
    </path>
    <path
       id="path4190"
       style="stroke:#000000;stroke-width:0.35433070866;fill:none"
       d="M 284.14685, 4898.3579 L 284.14685, 4926.86378987 M 284.14685, 4937.49371113 L 284.14685, 4965.999601 M 291.2334638, 4898.3579 L 291.2334638, 4926.86378987 M 291.2334638, 4937.49371113 L 291.2334638, 4965.999601 M 298.3200776, 4898.3579 L 298.3200776, 4926.86378987 M 298.3200776, 4937.49371113 L 298.3200776, 4965.999601 M 305.4066914, 4898.3579 L 305.4066914, 4926.86378987 M 305.4066914, 4937.49371113 L 305.4066914, 4965.999601 M 312.4933052, 4898.3579 L 312.4933052, 4926.86378987 M 312.4933052, 4937.49371113 L 312.4933052, 4965.999601 M 319.579919, 4898.3579 L 319.579919, 4926.86378987 M 319.579919, 4937.49371113 L 319.579919, 4965.999601 M 326.6665328, 4898.3579 L 326.6665328, 4926.86378987 M 326.6665328, 4937.49371113 L 326.6665328, 4965.999601 M 333.7531466, 4898.3579 L 333.7531466, 4926.86378987 M 333.7531466, 4937.49371113 L 333.7531466, 4965.999601 M 340.8397604, 4898.3579 L 340.8397604, 4926.86378987 M 340.8397604, 4937.49371113 L 340.8397604, 4965.999601 M 347.9263742, 4898.3579 L 347.9263742, 4926.86378987 M 347.9263742, 4937.49371113 L 347.9263742, 4965.999601 M 355.012988, 4898.3579 L 355.012988, 4926.86378987 M 355.012988, 4937.49371113 L 355.012988, 4965.999601 M 362.0996018, 4898.3579 L 362.0996018, 4926.86378987 M 362.0996018, 4937.49371113 L 362.0996018, 4965.999601 M 369.1862156, 4898.3579 L 369.1862156, 4926.86378987 M 369.1862156, 4937.49371113 L 369.1862156, 4965.999601 M 376.2728294, 4898.3579 L 376.2728294, 4926.86378987 M 376.2728294, 4937.49371113 L 376.2728294, 4965.999601 M 383.3594432, 4898.3579 L 383.3594432, 4926.86378987 M 383.3594432, 4937.49371113 L 383.3594432, 4965.999601 M 390.446057, 4898.3579 L 390.446057, 4926.86378987 M 390.446057, 4937.49371113 L 390.446057, 4965.999601 M 397.5326708, 4898.3579 L 397.5326708, 4926.86378987 M 397.5326708, 4937.49371113 L 397.5326708, 4965.999601 M 404.6192846, 4898.3579 L 404.6192846, 4926.86378987 M 404.6192846, 4937.49371113 L 404.6192846, 4965.999601 M 411.7058984, 4898.3579 L 411.7058984, 4926.86378987 M 411.7058984, 4937.49371113 L 411.7058984, 4965.999601 M 418.7925122, 4898.3579 L 418.7925122, 4926.86378987 M 418.7925122, 4937.49371113 L 418.7925122, 4965.999601 M 425.879126, 4898.3579 L 425.879126, 4926.86378987 M 425.879126, 4937.49371113 L 425.879126, 4965.999601 M 432.9657398, 4898.3579 L 432.9657398, 4926.86378987 M 432.9657398, 4937.49371113 L 432.9657398, 4965.999601 M 440.0523536, 4898.3579 L 440.0523536, 4926.86378987 M 440.0523536, 4937.49371113 L 440.0523536, 4965.999601 M 447.1389674, 4898.3579 L 447.1389674, 4926.86378987 M 447.1389674, 4937.49371113 L 447.1389674, 4965.999601 M 454.2255812, 4898.3579 L 454.2255812, 4926.86378987 M 454.2255812, 4937.49371113 L 454.2255812, 4965.999601 M 461.312195, 4898.3579 L 461.312195, 4926.86378987 M 461.312195, 4937.49371113 L 461.312195, 4965.999601 M 468.3988088, 4898.3579 L 468.3988088, 4926.86378987 M 468.3988088, 4937.49371113 L 468.3988088, 4965.999601 M 475.4854226, 4898.3579 L 475.4854226, 4926.86378987 M 475.4854226, 4937.49371113 L 475.4854226, 4965.999601 M 482.5720364, 4898.3579 L 482.5720364, 4926.86378987 M 482.5720364, 4937.49371113 L 482.5720364, 4965.999601 M 489.6586502, 4898.3579 L 489.6586502, 4926.86378987 M 489.6586502, 4937.49371113 L 489.6586502, 4965.999601 M 496.745264, 4898.3579 L 496.745264, 4926.86378987 M 496.745264, 4937.49371113 L 496.745264, 4965.999601 M 503.8318778, 4898.3579 L 503.8318778, 4926.86378987 M 503.8318778, 4937.49371113 L 503.8318778, 4965.999601 M 510.9184916, 4898.3579 L 510.9184916, 4926.86378987 M 510.9184916, 4937.49371113 L 510.9184916, 4965.999601 M 518.0051054, 4898.3579 L 518.0051054, 4926.86378987 M 518.0051054, 4937.49371113 L 518.0051054, 4965.999601 M 525.0917192, 4898.3579 L 525.0917192, 4926.86378987 M 525.0917192, 4937.49371113 L 525.0917192, 4965.999601 M 532.178333, 4898.3579 L 532.178333, 4926.86378987 M 532.178333, 4937.49371113 L 532.178333, 4965.999601 M 539.2649468, 4898.3579 L 539.2649468, 4926.86378987 M 539.2649468, 4937.49371113 L 539.2649468, 4965.999601 M 546.3515606, 4898.3579 L 546.3515606, 4926.86378987 M 546.3515606, 4937.49371113 L 546.3515606, 4965.999601 M 553.4381744, 4898.3579 L 553.4381744, 4926.86378987 M 553.4381744, 4937.49371113 L 553.4381744, 4965.999601 M 560.5247882, 4898.3579 L 560.5247882, 4926.86378987 M 560.5247882, 4937.49371113 L 560.5247882, 4965.999601 M 567.611402, 4898.3579 L 567.611402, 4926.86378987 M 567.611402, 4937.49371113 L 567.611402, 4965.999601 M 574.6980158, 4898.3579 L 574.6980158, 4926.86378987 M 574.6980158, 4937.49371113 L 574.6980158, 4965.999601 M 581.7846296, 4898.3579 L 581.7846296, 4926.86378987 M 581.7846296, 4937.49371113 L 581.7846296, 4965.999601 M 588.8712434, 4898.3579 L 588.8712434, 4926.86378987 M 588.8712434, 4937.49371113 L 588.8712434, 4965.999601 M 595.9578572, 4898.3579 L 595.9578572, 4926.86378987 M 595.9578572, 4937.49371113 L 595.9578572, 4965.999601 M 603.044471, 4898.3579 L 603.044471, 4926.86378987 M 603.044471, 4937.49371113 L 603.044471, 4965.999601 M 610.1310848, 4898.3579 L 610.1310848, 4926.86378987 M 610.1310848, 4937.49371113 L 610.1310848, 4965.999601 M 617.2176986, 4898.3579 L 617.2176986, 4926.86378987 M 617.2176986, 4937.49371113 L 617.2176986, 4965.999601 M 624.3043124, 4898.3579 L 624.3043124, 4926.86378987 M 624.3043124, 4937.49371113 L 624.3043124, 4965.999601 M 631.3909262, 4898.3579 L 631.3909262, 4926.86378987 M 631.3909262, 4937.49371113 L 631.3909262, 4965.999601 M 638.47754, 4898.3579 L 638.47754, 4926.86378987 M 638.47754, 4937.49371113 L 638.47754, 4965.999601 M 645.5641538, 4898.3579 L 645.5641538, 4926.86378987 M 645.5641538, 4937.49371113 L 645.5641538, 4965.999601 M 652.6507676, 4898.3579 L 652.6507676, 4926.86378987 M 652.6507676, 4937.49371113 L 652.6507676, 4965.999601 M 659.7373814, 4898.3579 L 659.7373814, 4926.86378987 M 659.7373814, 4937.49371113 L 659.7373814, 4965.999601 M 666.8239952, 4898.3579 L 666.8239952, 4926.86378987 M 666.8239952, 4937.49371113 L 666.8239952, 4965.999601 M 673.910609, 4898.3579 L 673.910609, 4926.86378987 M 673.910609, 4937.49371113 L 673.910609, 4965.999601 M 680.9972228, 4898.3579 L 680.9972228, 4926.86378987 M 680.9972228, 4937.49371113 L 680.9972228, 4965.999601 M 688.0838366, 4898.3579 L 688.0838366, 4926.86378987 M 688.0838366, 4937.49371113 L 688.0838366, 4965.999601 M 695.1704504, 4898.3579 L 695.1704504, 4926.86378987 M 695.1704504, 4937.49371113 L 695.1704504, 4965.999601 M 702.2570642, 4898.3579 L 702.2570642, 4926.86378987 M 702.2570642, 4937.49371113 L 702.2570642, 4965.999601 M 709.343678, 4898.3579 L 709.343678, 4926.86378987 M 709.343678, 4937.49371113 L 709.343678, 4965.999601 M 716.4302918, 4898.3579 L 716.4302918, 4926.86378987 M 716.4302918, 4937.49371113 L 716.4302918, 4965.999601 M 723.5169056, 4898.3579 L 723.5169056, 4926.86378987 M 723.5169056, 4937.49371113 L 723.5169056, 4965.999601 M 730.6035194, 4898.3579 L 730.6035194, 4926.86378987 M 730.6035194, 4937.49371113 L 730.6035194, 4965.999601 M 737.6901332, 4898.3579 L 737.6901332, 4926.86378987 M 737.6901332, 4937.49371113 L 737.6901332, 4965.999601 M 744.776747, 4898.3579 L 744.776747, 4926.86378987 M 744.776747, 4937.49371113 L 744.776747, 4965.999601 M 751.8633608, 4898.3579 L 751.8633608, 4926.86378987 M 751.8633608, 4937.49371113 L 751.8633608, 4965.999601 M 758.9499746, 4898.3579 L 758.9499746, 4926.86378987 M 758.9499746, 4937.49371113 L 758.9499746, 4965.999601 M 766.0365884, 4898.3579 L 766.0365884, 4926.86378987 M 766.0365884, 4937.49371113 L 766.0365884, 4965.999601 M 773.1232022, 4898.3579 L 773.1232022, 4926.86378987 M 773.1232022, 4937.49371113 L 773.1232022, 4965.999601 M 780.209816, 4898.3579 L 780.209816, 4926.86378987 M 780.209816, 4937.49371113 L 780.209816, 4965.999601 M 787.2964298, 4898.3579 L 787.2964298, 4926.86378987 M 787.2964298, 4937.49371113 L 787.2964298, 4965.999601 M 794.3830436, 4898.3579 L 794.3830436, 4926.86378987 M 794.3830436, 4937.49371113 L 794.3830436, 4965.999601 M 801.4696574, 4898.3579 L 801.4696574, 4926.86378987 M 801.4696574, 4937.49371113 L 801.4696574, 4965.999601 M 808.5562712, 4898.3579 L 808.5562712, 4926.86378987 M 808.5562712, 4937.49371113 L 808.5562712, 4965.999601 M 815.642885, 4898.3579 L 815.642885, 4926.86378987 M 815.642885, 4937.49371113 L 815.642885, 4965.999601 M 822.7294988, 4898.3579 L 822.7294988, 4926.86378987 M 822.7294988, 4937.49371113 L 822.7294988, 4965.999601 M 829.8161126, 4898.3579 L 829.8161126, 4926.86378987 M 829.8161126, 4937.49371113 L 829.8161126, 4965.999601 M 836.9027264, 4898.3579 L 836.9027264, 4926.86378987 M 836.9027264, 4937.49371113 L 836.9027264, 4965.999601 M 843.9893402, 4898.3579 L 843.9893402, 4926.86378987 M 843.9893402, 4937.49371113 L 843.9893402, 4965.999601 M 851.075954, 4898.3579 L 851.075954, 4926.86378987 M 851.075954, 4937.49371113 L 851.075954, 4965.999601 M 858.1625678, 4898.3579 L 858.1625678, 4926.86378987 M 858.1625678, 4937.49371113 L 858.1625678, 4965.999601 M 865.2491816, 4898.3579 L 865.2491816, 4926.86378987 M 865.2491816, 4937.49371113 L 865.2491816, 4965.999601 M 872.3357954, 4898.3579 L 872.3357954, 4926.86378987 M 872.3357954, 4937.49371113 L 872.3357954, 4965.999601 M 879.4224092, 4898.3579 L 879.4224092, 4926.86378987 M 879.4224092, 4937.49371113 L 879.4224092, 4965.999601 M 886.509023, 4898.3579 L 886.509023, 4926.86378987 M 886.509023, 4937.49371113 L 886.509023, 4965.999601 M 893.5956368, 4898.3579 L 893.5956368, 4926.86378987 M 893.5956368, 4937.49371113 L 893.5956368, 4965.999601 M 900.6822506, 4898.3579 L 900.6822506, 4926.86378987 M 900.6822506, 4937.49371113 L 900.6822506, 4965.999601 M 907.7688644, 4898.3579 L 907.7688644, 4926.86378987 M 907.7688644, 4937.49371113 L 907.7688644, 4965.999601 M 914.8554782, 4898.3579 L 914.8554782, 4926.86378987 M 914.8554782, 4937.49371113 L 914.8554782, 4965.999601 M 921.942092, 4898.3579 L 921.942092, 4926.86378987 M 921.942092, 4937.49371113 L 921.942092, 4965.999601 M 929.0287058, 4898.3579 L 929.0287058, 4926.86378987 M 929.0287058, 4937.49371113 L 929.0287058, 4965.999601 M 936.1153196, 4898.3579 L 936.1153196, 4926.86378987 M 936.1153196, 4937.49371113 L 936.1153196, 4965.999601 M 943.2019334, 4898.3579 L 943.2019334, 4926.86378987 M 943.2019334, 4937.49371113 L 943.2019334, 4965.999601 M 950.2885472, 4898.3579 L 950.2885472, 4926.86378987 M 950.2885472, 4937.49371113 L 950.2885472, 4965.999601 M 957.375161, 4898.3579 L 957.375161, 4926.86378987 M 957.375161, 4937.49371113 L 957.375161, 4965.999601 M 964.4617748, 4898.3579 L 964.4617748, 4926.86378987 M 964.4617748, 4937.49371113 L 964.4617748, 4965.999601 M 971.5483886, 4898.3579 L 971.5483886, 4926.86378987 M 971.5483886, 4937.49371113 L 971.5483886, 4965.999601 M 978.6350024, 4898.3579 L 978.6350024, 4926.86378987 M 978.6350024, 4937.49371113 L 978.6350024, 4965.999601 M 985.7216162, 4898.3579 L 985.7216162, 4926.86378987 M 985.7216162, 4937.49371113 L 985.7216162, 4965.999601 M 992.80823, 4898.3579 L 992.80823, 4926.86378987 M 992.80823, 4937.49371113 L 992.80823, 4965.999601 M 287.6901569, 4908.98782126 L 287.6901569, 4955.36967974 M 294.7767707, 4908.98782126 L 294.7767707, 4955.36967974 M 301.8633845, 4908.98782126 L 301.8633845, 4955.36967974 M 308.9499983, 4908.98782126 L 308.9499983, 4955.36967974 M 316.0366121, 4908.98782126 L 316.0366121, 4955.36967974 M 323.1232259, 4908.98782126 L 323.1232259, 4955.36967974 M 330.2098397, 4908.98782126 L 330.2098397, 4955.36967974 M 337.2964535, 4908.98782126 L 337.2964535, 4955.36967974 M 344.3830673, 4908.98782126 L 344.3830673, 4955.36967974 M 351.4696811, 4908.98782126 L 351.4696811, 4955.36967974 M 358.5562949, 4908.98782126 L 358.5562949, 4955.36967974 M 365.6429087, 4908.98782126 L 365.6429087, 4955.36967974 M 372.7295225, 4908.98782126 L 372.7295225, 4955.36967974 M 379.8161363, 4908.98782126 L 379.8161363, 4955.36967974 M 386.9027501, 4908.98782126 L 386.9027501, 4955.36967974 M 393.9893639, 4908.98782126 L 393.9893639, 4955.36967974 M 401.0759777, 4908.98782126 L 401.0759777, 4955.36967974 M 408.1625915, 4908.98782126 L 408.1625915, 4955.36967974 M 415.2492053, 4908.98782126 L 415.2492053, 4955.36967974 M 422.3358191, 4908.98782126 L 422.3358191, 4955.36967974 M 429.4224329, 4908.98782126 L 429.4224329, 4955.36967974 M 436.5090467, 4908.98782126 L 436.5090467, 4955.36967974 M 443.5956605, 4908.98782126 L 443.5956605, 4955.36967974 M 450.6822743, 4908.98782126 L 450.6822743, 4955.36967974 M 457.7688881, 4908.98782126 L 457.7688881, 4955.36967974 M 464.8555019, 4908.98782126 L 464.8555019, 4955.36967974 M 471.9421157, 4908.98782126 L 471.9421157, 4955.36967974 M 479.0287295, 4908.98782126 L 479.0287295, 4955.36967974 M 486.1153433, 4908.98782126 L 486.1153433, 4955.36967974 M 493.2019571, 4908.98782126 L 493.2019571, 4955.36967974 M 500.2885709, 4908.98782126 L 500.2885709, 4955.36967974 M 507.3751847, 4908.98782126 L 507.3751847, 4955.36967974 M 514.4617985, 4908.98782126 L 514.4617985, 4955.36967974 M 521.5484123, 4908.98782126 L 521.5484123, 4955.36967974 M 528.6350261, 4908.98782126 L 528.6350261, 4955.36967974 M 535.7216399, 4908.98782126 L 535.7216399, 4955.36967974 M 542.8082537, 4908.98782126 L 542.8082537, 4955.36967974 M 549.8948675, 4908.98782126 L 549.8948675, 4955.36967974 M 556.9814813, 4908.98782126 L 556.9814813, 4955.36967974 M 564.0680951, 4908.98782126 L 564.0680951, 4955.36967974 M 571.1547089, 4908.98782126 L 571.1547089, 4955.36967974 M 578.2413227, 4908.98782126 L 578.2413227, 4955.36967974 M 585.3279365, 4908.98782126 L 585.3279365, 4955.36967974 M 592.4145503, 4908.98782126 L 592.4145503, 4955.36967974 M 599.5011641, 4908.98782126 L 599.5011641, 4955.36967974 M 606.5877779, 4908.98782126 L 606.5877779, 4955.36967974 M 613.6743917, 4908.98782126 L 613.6743917, 4955.36967974 M 620.7610055, 4908.98782126 L 620.7610055, 4955.36967974 M 627.8476193, 4908.98782126 L 627.8476193, 4955.36967974 M 634.9342331, 4908.98782126 L 634.9342331, 4955.36967974 M 642.0208469, 4908.98782126 L 642.0208469, 4955.36967974 M 649.1074607, 4908.98782126 L 649.1074607, 4955.36967974 M 656.1940745, 4908.98782126 L 656.1940745, 4955.36967974 M 663.2806883, 4908.98782126 L 663.2806883, 4955.36967974 M 670.3673021, 4908.98782126 L 670.3673021, 4955.36967974 M 677.4539159, 4908.98782126 L 677.4539159, 4955.36967974 M 684.5405297, 4908.98782126 L 684.5405297, 4955.36967974 M 691.6271435, 4908.98782126 L 691.6271435, 4955.36967974 M 698.7137573, 4908.98782126 L 698.7137573, 4955.36967974 M 705.8003711, 4908.98782126 L 705.8003711, 4955.36967974 M 712.8869849, 4908.98782126 L 712.8869849, 4955.36967974 M 719.9735987, 4908.98782126 L 719.9735987, 4955.36967974 M 727.0602125, 4908.98782126 L 727.0602125, 4955.36967974 M 734.1468263, 4908.98782126 L 734.1468263, 4955.36967974 M 741.2334401, 4908.98782126 L 741.2334401, 4955.36967974 M 748.3200539, 4908.98782126 L 748.3200539, 4955.36967974 M 755.4066677, 4908.98782126 L 755.4066677, 4955.36967974 M 762.4932815, 4908.98782126 L 762.4932815, 4955.36967974 M 769.5798953, 4908.98782126 L 769.5798953, 4955.36967974 M 776.6665091, 4908.98782126 L 776.6665091, 4955.36967974 M 783.7531229, 4908.98782126 L 783.7531229, 4955.36967974 M 790.8397367, 4908.98782126 L 790.8397367, 4955.36967974 M 797.9263505, 4908.98782126 L 797.9263505, 4955.36967974 M 805.0129643, 4908.98782126 L 805.0129643, 4955.36967974 M 812.0995781, 4908.98782126 L 812.0995781, 4955.36967974 M 819.1861919, 4908.98782126 L 819.1861919, 4955.36967974 M 826.2728057, 4908.98782126 L 826.2728057, 4955.36967974 M 833.3594195, 4908.98782126 L 833.3594195, 4955.36967974 M 840.4460333, 4908.98782126 L 840.4460333, 4955.36967974 M 847.5326471, 4908.98782126 L 847.5326471, 4955.36967974 M 854.6192609, 4908.98782126 L 854.6192609, 4955.36967974 M 861.7058747, 4908.98782126 L 861.7058747, 4955.36967974 M 868.7924885, 4908.98782126 L 868.7924885, 4955.36967974 M 875.8791023, 4908.98782126 L 875.8791023, 4955.36967974 M 882.9657161, 4908.98782126 L 882.9657161, 4955.36967974 M 890.0523299, 4908.98782126 L 890.0523299, 4955.36967974 M 897.1389437, 4908.98782126 L 897.1389437, 4955.36967974 M 904.2255575, 4908.98782126 L 904.2255575, 4955.36967974 M 911.3121713, 4908.98782126 L 911.3121713, 4955.36967974 M 918.3987851, 4908.98782126 L 918.3987851, 4955.36967974 M 925.4853989, 4908.98782126 L 925.4853989, 4955.36967974 M 932.5720127, 4908.98782126 L 932.5720127, 4955.36967974 M 939.6586265, 4908.98782126 L 939.6586265, 4955.36967974 M 946.7452403, 4908.98782126 L 946.7452403, 4955.36967974 M 953.8318541, 4908.98782126 L 953.8318541, 4955.36967974 M 960.9184679, 4908.98782126 L 960.9184679, 4955.36967974 M 968.0050817, 4908.98782126 L 968.0050817, 4955.36967974 M 975.0916955, 4908.98782126 L 975.0916955, 4955.36967974 M 982.1783093, 4908.98782126 L 982.1783093, 4955.36967974 M 989.2649231, 4908.98782126 L 989.2649231, 4955.36967974 ">
      <desc
         id="desc4192">Hinge cut parameters: actual(requested)
cut length: 13.09 mm (19.00 mm)
gap length: 3.00 mm (3.00 mm)
separation distance: 1.00 mm (1.00 mm)</desc>
    </path>
    <path
       d="M 284.14685, 4898.3579 L 284.14685, 4926.86378987 M 284.14685, 4937.49371113 L 284.14685, 4965.999601 M 291.2334638, 4898.3579 L 291.2334638, 4926.86378987 M 291.2334638, 4937.49371113 L 291.2334638, 4965.999601 M 298.3200776, 4898.3579 L 298.3200776, 4926.86378987 M 298.3200776, 4937.49371113 L 298.3200776, 4965.999601 M 305.4066914, 4898.3579 L 305.4066914, 4926.86378987 M 305.4066914, 4937.49371113 L 305.4066914, 4965.999601 M 312.4933052, 4898.3579 L 312.4933052, 4926.86378987 M 312.4933052, 4937.49371113 L 312.4933052, 4965.999601 M 319.579919, 4898.3579 L 319.579919, 4926.86378987 M 319.579919, 4937.49371113 L 319.579919, 4965.999601 M 326.6665328, 4898.3579 L 326.6665328, 4926.86378987 M 326.6665328, 4937.49371113 L 326.6665328, 4965.999601 M 333.7531466, 4898.3579 L 333.7531466, 4926.86378987 M 333.7531466, 4937.49371113 L 333.7531466, 4965.999601 M 340.8397604, 4898.3579 L 340.8397604, 4926.86378987 M 340.8397604, 4937.49371113 L 340.8397604, 4965.999601 M 347.9263742, 4898.3579 L 347.9263742, 4926.86378987 M 347.9263742, 4937.49371113 L 347.9263742, 4965.999601 M 355.012988, 4898.3579 L 355.012988, 4926.86378987 M 355.012988, 4937.49371113 L 355.012988, 4965.999601 M 362.0996018, 4898.3579 L 362.0996018, 4926.86378987 M 362.0996018, 4937.49371113 L 362.0996018, 4965.999601 M 369.1862156, 4898.3579 L 369.1862156, 4926.86378987 M 369.1862156, 4937.49371113 L 369.1862156, 4965.999601 M 376.2728294, 4898.3579 L 376.2728294, 4926.86378987 M 376.2728294, 4937.49371113 L 376.2728294, 4965.999601 M 383.3594432, 4898.3579 L 383.3594432, 4926.86378987 M 383.3594432, 4937.49371113 L 383.3594432, 4965.999601 M 390.446057, 4898.3579 L 390.446057, 4926.86378987 M 390.446057, 4937.49371113 L 390.446057, 4965.999601 M 397.5326708, 4898.3579 L 397.5326708, 4926.86378987 M 397.5326708, 4937.49371113 L 397.5326708, 4965.999601 M 404.6192846, 4898.3579 L 404.6192846, 4926.86378987 M 404.6192846, 4937.49371113 L 404.6192846, 4965.999601 M 411.7058984, 4898.3579 L 411.7058984, 4926.86378987 M 411.7058984, 4937.49371113 L 411.7058984, 4965.999601 M 418.7925122, 4898.3579 L 418.7925122, 4926.86378987 M 418.7925122, 4937.49371113 L 418.7925122, 4965.999601 M 425.879126, 4898.3579 L 425.879126, 4926.86378987 M 425.879126, 4937.49371113 L 425.879126, 4965.999601 M 432.9657398, 4898.3579 L 432.9657398, 4926.86378987 M 432.9657398, 4937.49371113 L 432.9657398, 4965.999601 M 440.0523536, 4898.3579 L 440.0523536, 4926.86378987 M 440.0523536, 4937.49371113 L 440.0523536, 4965.999601 M 447.1389674, 4898.3579 L 447.1389674, 4926.86378987 M 447.1389674, 4937.49371113 L 447.1389674, 4965.999601 M 454.2255812, 4898.3579 L 454.2255812, 4926.86378987 M 454.2255812, 4937.49371113 L 454.2255812, 4965.999601 M 461.312195, 4898.3579 L 461.312195, 4926.86378987 M 461.312195, 4937.49371113 L 461.312195, 4965.999601 M 468.3988088, 4898.3579 L 468.3988088, 4926.86378987 M 468.3988088, 4937.49371113 L 468.3988088, 4965.999601 M 475.4854226, 4898.3579 L 475.4854226, 4926.86378987 M 475.4854226, 4937.49371113 L 475.4854226, 4965.999601 M 482.5720364, 4898.3579 L 482.5720364, 4926.86378987 M 482.5720364, 4937.49371113 L 482.5720364, 4965.999601 M 489.6586502, 4898.3579 L 489.6586502, 4926.86378987 M 489.6586502, 4937.49371113 L 489.6586502, 4965.999601 M 496.745264, 4898.3579 L 496.745264, 4926.86378987 M 496.745264, 4937.49371113 L 496.745264, 4965.999601 M 503.8318778, 4898.3579 L 503.8318778, 4926.86378987 M 503.8318778, 4937.49371113 L 503.8318778, 4965.999601 M 510.9184916, 4898.3579 L 510.9184916, 4926.86378987 M 510.9184916, 4937.49371113 L 510.9184916, 4965.999601 M 518.0051054, 4898.3579 L 518.0051054, 4926.86378987 M 518.0051054, 4937.49371113 L 518.0051054, 4965.999601 M 525.0917192, 4898.3579 L 525.0917192, 4926.86378987 M 525.0917192, 4937.49371113 L 525.0917192, 4965.999601 M 532.178333, 4898.3579 L 532.178333, 4926.86378987 M 532.178333, 4937.49371113 L 532.178333, 4965.999601 M 539.2649468, 4898.3579 L 539.2649468, 4926.86378987 M 539.2649468, 4937.49371113 L 539.2649468, 4965.999601 M 546.3515606, 4898.3579 L 546.3515606, 4926.86378987 M 546.3515606, 4937.49371113 L 546.3515606, 4965.999601 M 553.4381744, 4898.3579 L 553.4381744, 4926.86378987 M 553.4381744, 4937.49371113 L 553.4381744, 4965.999601 M 560.5247882, 4898.3579 L 560.5247882, 4926.86378987 M 560.5247882, 4937.49371113 L 560.5247882, 4965.999601 M 567.611402, 4898.3579 L 567.611402, 4926.86378987 M 567.611402, 4937.49371113 L 567.611402, 4965.999601 M 574.6980158, 4898.3579 L 574.6980158, 4926.86378987 M 574.6980158, 4937.49371113 L 574.6980158, 4965.999601 M 581.7846296, 4898.3579 L 581.7846296, 4926.86378987 M 581.7846296, 4937.49371113 L 581.7846296, 4965.999601 M 588.8712434, 4898.3579 L 588.8712434, 4926.86378987 M 588.8712434, 4937.49371113 L 588.8712434, 4965.999601 M 595.9578572, 4898.3579 L 595.9578572, 4926.86378987 M 595.9578572, 4937.49371113 L 595.9578572, 4965.999601 M 603.044471, 4898.3579 L 603.044471, 4926.86378987 M 603.044471, 4937.49371113 L 603.044471, 4965.999601 M 610.1310848, 4898.3579 L 610.1310848, 4926.86378987 M 610.1310848, 4937.49371113 L 610.1310848, 4965.999601 M 617.2176986, 4898.3579 L 617.2176986, 4926.86378987 M 617.2176986, 4937.49371113 L 617.2176986, 4965.999601 M 624.3043124, 4898.3579 L 624.3043124, 4926.86378987 M 624.3043124, 4937.49371113 L 624.3043124, 4965.999601 M 631.3909262, 4898.3579 L 631.3909262, 4926.86378987 M 631.3909262, 4937.49371113 L 631.3909262, 4965.999601 M 638.47754, 4898.3579 L 638.47754, 4926.86378987 M 638.47754, 4937.49371113 L 638.47754, 4965.999601 M 645.5641538, 4898.3579 L 645.5641538, 4926.86378987 M 645.5641538, 4937.49371113 L 645.5641538, 4965.999601 M 652.6507676, 4898.3579 L 652.6507676, 4926.86378987 M 652.6507676, 4937.49371113 L 652.6507676, 4965.999601 M 659.7373814, 4898.3579 L 659.7373814, 4926.86378987 M 659.7373814, 4937.49371113 L 659.7373814, 4965.999601 M 666.8239952, 4898.3579 L 666.8239952, 4926.86378987 M 666.8239952, 4937.49371113 L 666.8239952, 4965.999601 M 673.910609, 4898.3579 L 673.910609, 4926.86378987 M 673.910609, 4937.49371113 L 673.910609, 4965.999601 M 680.9972228, 4898.3579 L 680.9972228, 4926.86378987 M 680.9972228, 4937.49371113 L 680.9972228, 4965.999601 M 688.0838366, 4898.3579 L 688.0838366, 4926.86378987 M 688.0838366, 4937.49371113 L 688.0838366, 4965.999601 M 695.1704504, 4898.3579 L 695.1704504, 4926.86378987 M 695.1704504, 4937.49371113 L 695.1704504, 4965.999601 M 702.2570642, 4898.3579 L 702.2570642, 4926.86378987 M 702.2570642, 4937.49371113 L 702.2570642, 4965.999601 M 709.343678, 4898.3579 L 709.343678, 4926.86378987 M 709.343678, 4937.49371113 L 709.343678, 4965.999601 M 716.4302918, 4898.3579 L 716.4302918, 4926.86378987 M 716.4302918, 4937.49371113 L 716.4302918, 4965.999601 M 723.5169056, 4898.3579 L 723.5169056, 4926.86378987 M 723.5169056, 4937.49371113 L 723.5169056, 4965.999601 M 730.6035194, 4898.3579 L 730.6035194, 4926.86378987 M 730.6035194, 4937.49371113 L 730.6035194, 4965.999601 M 737.6901332, 4898.3579 L 737.6901332, 4926.86378987 M 737.6901332, 4937.49371113 L 737.6901332, 4965.999601 M 744.776747, 4898.3579 L 744.776747, 4926.86378987 M 744.776747, 4937.49371113 L 744.776747, 4965.999601 M 751.8633608, 4898.3579 L 751.8633608, 4926.86378987 M 751.8633608, 4937.49371113 L 751.8633608, 4965.999601 M 758.9499746, 4898.3579 L 758.9499746, 4926.86378987 M 758.9499746, 4937.49371113 L 758.9499746, 4965.999601 M 766.0365884, 4898.3579 L 766.0365884, 4926.86378987 M 766.0365884, 4937.49371113 L 766.0365884, 4965.999601 M 773.1232022, 4898.3579 L 773.1232022, 4926.86378987 M 773.1232022, 4937.49371113 L 773.1232022, 4965.999601 M 780.209816, 4898.3579 L 780.209816, 4926.86378987 M 780.209816, 4937.49371113 L 780.209816, 4965.999601 M 787.2964298, 4898.3579 L 787.2964298, 4926.86378987 M 787.2964298, 4937.49371113 L 787.2964298, 4965.999601 M 794.3830436, 4898.3579 L 794.3830436, 4926.86378987 M 794.3830436, 4937.49371113 L 794.3830436, 4965.999601 M 801.4696574, 4898.3579 L 801.4696574, 4926.86378987 M 801.4696574, 4937.49371113 L 801.4696574, 4965.999601 M 808.5562712, 4898.3579 L 808.5562712, 4926.86378987 M 808.5562712, 4937.49371113 L 808.5562712, 4965.999601 M 815.642885, 4898.3579 L 815.642885, 4926.86378987 M 815.642885, 4937.49371113 L 815.642885, 4965.999601 M 822.7294988, 4898.3579 L 822.7294988, 4926.86378987 M 822.7294988, 4937.49371113 L 822.7294988, 4965.999601 M 829.8161126, 4898.3579 L 829.8161126, 4926.86378987 M 829.8161126, 4937.49371113 L 829.8161126, 4965.999601 M 836.9027264, 4898.3579 L 836.9027264, 4926.86378987 M 836.9027264, 4937.49371113 L 836.9027264, 4965.999601 M 843.9893402, 4898.3579 L 843.9893402, 4926.86378987 M 843.9893402, 4937.49371113 L 843.9893402, 4965.999601 M 851.075954, 4898.3579 L 851.075954, 4926.86378987 M 851.075954, 4937.49371113 L 851.075954, 4965.999601 M 858.1625678, 4898.3579 L 858.1625678, 4926.86378987 M 858.1625678, 4937.49371113 L 858.1625678, 4965.999601 M 865.2491816, 4898.3579 L 865.2491816, 4926.86378987 M 865.2491816, 4937.49371113 L 865.2491816, 4965.999601 M 872.3357954, 4898.3579 L 872.3357954, 4926.86378987 M 872.3357954, 4937.49371113 L 872.3357954, 4965.999601 M 879.4224092, 4898.3579 L 879.4224092, 4926.86378987 M 879.4224092, 4937.49371113 L 879.4224092, 4965.999601 M 886.509023, 4898.3579 L 886.509023, 4926.86378987 M 886.509023, 4937.49371113 L 886.509023, 4965.999601 M 893.5956368, 4898.3579 L 893.5956368, 4926.86378987 M 893.5956368, 4937.49371113 L 893.5956368, 4965.999601 M 900.6822506, 4898.3579 L 900.6822506, 4926.86378987 M 900.6822506, 4937.49371113 L 900.6822506, 4965.999601 M 907.7688644, 4898.3579 L 907.7688644, 4926.86378987 M 907.7688644, 4937.49371113 L 907.7688644, 4965.999601 M 914.8554782, 4898.3579 L 914.8554782, 4926.86378987 M 914.8554782, 4937.49371113 L 914.8554782, 4965.999601 M 921.942092, 4898.3579 L 921.942092, 4926.86378987 M 921.942092, 4937.49371113 L 921.942092, 4965.999601 M 929.0287058, 4898.3579 L 929.0287058, 4926.86378987 M 929.0287058, 4937.49371113 L 929.0287058, 4965.999601 M 936.1153196, 4898.3579 L 936.1153196, 4926.86378987 M 936.1153196, 4937.49371113 L 936.1153196, 4965.999601 M 943.2019334, 4898.3579 L 943.2019334, 4926.86378987 M 943.2019334, 4937.49371113 L 943.2019334, 4965.999601 M 950.2885472, 4898.3579 L 950.2885472, 4926.86378987 M 950.2885472, 4937.49371113 L 950.2885472, 4965.999601 M 957.375161, 4898.3579 L 957.375161, 4926.86378987 M 957.375161, 4937.49371113 L 957.375161, 4965.999601 M 964.4617748, 4898.3579 L 964.4617748, 4926.86378987 M 964.4617748, 4937.49371113 L 964.4617748, 4965.999601 M 971.5483886, 4898.3579 L 971.5483886, 4926.86378987 M 971.5483886, 4937.49371113 L 971.5483886, 4965.999601 M 978.6350024, 4898.3579 L 978.6350024, 4926.86378987 M 978.6350024, 4937.49371113 L 978.6350024, 4965.999601 M 985.7216162, 4898.3579 L 985.7216162, 4926.86378987 M 985.7216162, 4937.49371113 L 985.7216162, 4965.999601 M 992.80823, 4898.3579 L 992.80823, 4926.86378987 M 992.80823, 4937.49371113 L 992.80823, 4965.999601 M 287.6901569, 4908.98782126 L 287.6901569, 4955.36967974 M 294.7767707, 4908.98782126 L 294.7767707, 4955.36967974 M 301.8633845, 4908.98782126 L 301.8633845, 4955.36967974 M 308.9499983, 4908.98782126 L 308.9499983, 4955.36967974 M 316.0366121, 4908.98782126 L 316.0366121, 4955.36967974 M 323.1232259, 4908.98782126 L 323.1232259, 4955.36967974 M 330.2098397, 4908.98782126 L 330.2098397, 4955.36967974 M 337.2964535, 4908.98782126 L 337.2964535, 4955.36967974 M 344.3830673, 4908.98782126 L 344.3830673, 4955.36967974 M 351.4696811, 4908.98782126 L 351.4696811, 4955.36967974 M 358.5562949, 4908.98782126 L 358.5562949, 4955.36967974 M 365.6429087, 4908.98782126 L 365.6429087, 4955.36967974 M 372.7295225, 4908.98782126 L 372.7295225, 4955.36967974 M 379.8161363, 4908.98782126 L 379.8161363, 4955.36967974 M 386.9027501, 4908.98782126 L 386.9027501, 4955.36967974 M 393.9893639, 4908.98782126 L 393.9893639, 4955.36967974 M 401.0759777, 4908.98782126 L 401.0759777, 4955.36967974 M 408.1625915, 4908.98782126 L 408.1625915, 4955.36967974 M 415.2492053, 4908.98782126 L 415.2492053, 4955.36967974 M 422.3358191, 4908.98782126 L 422.3358191, 4955.36967974 M 429.4224329, 4908.98782126 L 429.4224329, 4955.36967974 M 436.5090467, 4908.98782126 L 436.5090467, 4955.36967974 M 443.5956605, 4908.98782126 L 443.5956605, 4955.36967974 M 450.6822743, 4908.98782126 L 450.6822743, 4955.36967974 M 457.7688881, 4908.98782126 L 457.7688881, 4955.36967974 M 464.8555019, 4908.98782126 L 464.8555019, 4955.36967974 M 471.9421157, 4908.98782126 L 471.9421157, 4955.36967974 M 479.0287295, 4908.98782126 L 479.0287295, 4955.36967974 M 486.1153433, 4908.98782126 L 486.1153433, 4955.36967974 M 493.2019571, 4908.98782126 L 493.2019571, 4955.36967974 M 500.2885709, 4908.98782126 L 500.2885709, 4955.36967974 M 507.3751847, 4908.98782126 L 507.3751847, 4955.36967974 M 514.4617985, 4908.98782126 L 514.4617985, 4955.36967974 M 521.5484123, 4908.98782126 L 521.5484123, 4955.36967974 M 528.6350261, 4908.98782126 L 528.6350261, 4955.36967974 M 535.7216399, 4908.98782126 L 535.7216399, 4955.36967974 M 542.8082537, 4908.98782126 L 542.8082537, 4955.36967974 M 549.8948675, 4908.98782126 L 549.8948675, 4955.36967974 M 556.9814813, 4908.98782126 L 556.9814813, 4955.36967974 M 564.0680951, 4908.98782126 L 564.0680951, 4955.36967974 M 571.1547089, 4908.98782126 L 571.1547089, 4955.36967974 M 578.2413227, 4908.98782126 L 578.2413227, 4955.36967974 M 585.3279365, 4908.98782126 L 585.3279365, 4955.36967974 M 592.4145503, 4908.98782126 L 592.4145503, 4955.36967974 M 599.5011641, 4908.98782126 L 599.5011641, 4955.36967974 M 606.5877779, 4908.98782126 L 606.5877779, 4955.36967974 M 613.6743917, 4908.98782126 L 613.6743917, 4955.36967974 M 620.7610055, 4908.98782126 L 620.7610055, 4955.36967974 M 627.8476193, 4908.98782126 L 627.8476193, 4955.36967974 M 634.9342331, 4908.98782126 L 634.9342331, 4955.36967974 M 642.0208469, 4908.98782126 L 642.0208469, 4955.36967974 M 649.1074607, 4908.98782126 L 649.1074607, 4955.36967974 M 656.1940745, 4908.98782126 L 656.1940745, 4955.36967974 M 663.2806883, 4908.98782126 L 663.2806883, 4955.36967974 M 670.3673021, 4908.98782126 L 670.3673021, 4955.36967974 M 677.4539159, 4908.98782126 L 677.4539159, 4955.36967974 M 684.5405297, 4908.98782126 L 684.5405297, 4955.36967974 M 691.6271435, 4908.98782126 L 691.6271435, 4955.36967974 M 698.7137573, 4908.98782126 L 698.7137573, 4955.36967974 M 705.8003711, 4908.98782126 L 705.8003711, 4955.36967974 M 712.8869849, 4908.98782126 L 712.8869849, 4955.36967974 M 719.9735987, 4908.98782126 L 719.9735987, 4955.36967974 M 727.0602125, 4908.98782126 L 727.0602125, 4955.36967974 M 734.1468263, 4908.98782126 L 734.1468263, 4955.36967974 M 741.2334401, 4908.98782126 L 741.2334401, 4955.36967974 M 748.3200539, 4908.98782126 L 748.3200539, 4955.36967974 M 755.4066677, 4908.98782126 L 755.4066677, 4955.36967974 M 762.4932815, 4908.98782126 L 762.4932815, 4955.36967974 M 769.5798953, 4908.98782126 L 769.5798953, 4955.36967974 M 776.6665091, 4908.98782126 L 776.6665091, 4955.36967974 M 783.7531229, 4908.98782126 L 783.7531229, 4955.36967974 M 790.8397367, 4908.98782126 L 790.8397367, 4955.36967974 M 797.9263505, 4908.98782126 L 797.9263505, 4955.36967974 M 805.0129643, 4908.98782126 L 805.0129643, 4955.36967974 M 812.0995781, 4908.98782126 L 812.0995781, 4955.36967974 M 819.1861919, 4908.98782126 L 819.1861919, 4955.36967974 M 826.2728057, 4908.98782126 L 826.2728057, 4955.36967974 M 833.3594195, 4908.98782126 L 833.3594195, 4955.36967974 M 840.4460333, 4908.98782126 L 840.4460333, 4955.36967974 M 847.5326471, 4908.98782126 L 847.5326471, 4955.36967974 M 854.6192609, 4908.98782126 L 854.6192609, 4955.36967974 M 861.7058747, 4908.98782126 L 861.7058747, 4955.36967974 M 868.7924885, 4908.98782126 L 868.7924885, 4955.36967974 M 875.8791023, 4908.98782126 L 875.8791023, 4955.36967974 M 882.9657161, 4908.98782126 L 882.9657161, 4955.36967974 M 890.0523299, 4908.98782126 L 890.0523299, 4955.36967974 M 897.1389437, 4908.98782126 L 897.1389437, 4955.36967974 M 904.2255575, 4908.98782126 L 904.2255575, 4955.36967974 M 911.3121713, 4908.98782126 L 911.3121713, 4955.36967974 M 918.3987851, 4908.98782126 L 918.3987851, 4955.36967974 M 925.4853989, 4908.98782126 L 925.4853989, 4955.36967974 M 932.5720127, 4908.98782126 L 932.5720127, 4955.36967974 M 939.6586265, 4908.98782126 L 939.6586265, 4955.36967974 M 946.7452403, 4908.98782126 L 946.7452403, 4955.36967974 M 953.8318541, 4908.98782126 L 953.8318541, 4955.36967974 M 960.9184679, 4908.98782126 L 960.9184679, 4955.36967974 M 968.0050817, 4908.98782126 L 968.0050817, 4955.36967974 M 975.0916955, 4908.98782126 L 975.0916955, 4955.36967974 M 982.1783093, 4908.98782126 L 982.1783093, 4955.36967974 M 989.2649231, 4908.98782126 L 989.2649231, 4955.36967974 "
       style="stroke:#000000;stroke-width:0.35433070866;fill:none"
       id="path4250">
      <desc
         id="desc4252">Hinge cut parameters: actual(requested)
cut length: 13.09 mm (19.00 mm)
gap length: 3.00 mm (3.00 mm)
separation distance: 1.00 mm (1.00 mm)</desc>
    </path>
    <g
       id="g4551"
       transform="matrix(0,1,-1,0,2725.5315,-5509.2975)">
      <path
         sodipodi:nodetypes="cccccccccccccccccccccccccccccccccccccccccccccccccccccccccccccccccccccccccccccccccccccccccccccccccccccccccccccccccccccc"
         inkscape:connector-curvature="0"
         d="m 3848.0474,-703.03432 0,-37.298 10.6298,0 0,-37.2979 -10.6298,0 0,-37.298 10.6298,0 0,-37.298 -10.6298,0 0,-37.2979 10.6298,0 0,-37.298 -10.6298,0 0,-37.298 10.6298,0 0,-37.29788 -10.6298,0 0,-37.298 10.6298,0 0,-37.298 -10.6298,0 0,-37.298 10.6298,0 0,-37.2979 -10.6298,0 0,-37.298 10.6298,0 0,-37.298 -10.6298,0 0,-37.2979 10.6298,0 0,-37.298 -10.6298,0 0,-37.298 10.6298,0 0,-37.2979 -10.6298,0 0,-37.298 m 314.9605,0 67.6417,0 m -382.6022,0 39.37,0 0,10.6299 39.37,0 0,-10.6299 39.3701,0 0,10.6299 39.3701,0 0,-10.6299 39.3701,0 0,10.6299 39.37,0 0,-10.6299 39.3701,0 0,10.6299 39.3701,0 0,-10.6299 m 0,708.66139 67.6417,0 m 0,0 0,-10.63001 36.0129,0 0,10.63001 36.0129,0 0,-10.63001 36.0128,0 0,10.63001 36.0129,0 0,-10.63001 36.0129,0 0,10.63001 36.0129,0 0,-10.63001 36.0129,0 0,10.63001 36.0129,0 0,-10.63001 36.0129,0 0,10.63001 36.0128,0 0,-708.66139 -36.0128,0 0,10.6299 -36.0129,0 0,-10.6299 -36.0129,0 0,10.6299 -36.0129,0 0,-10.6299 -36.0129,0 0,10.6299 -36.0129,0 0,-10.6299 -36.0129,0 0,10.6299 -36.0128,0 0,-10.6299 -36.0129,0 0,10.6299 -36.0129,0 0,-10.6299 m -382.6022,708.66139 39.37,0 0,-10.63001 39.37,0 0,10.63001 39.3701,0 0,-10.63001 39.3701,0 0,10.63001 39.3701,0 0,-10.63001 39.37,0 0,10.63001 39.3701,0 0,-10.63001 39.3701,0 0,10.63001"
         style="fill:none;stroke:#ff0000"
         id="path4442" />
      <path
         inkscape:connector-curvature="0"
         d="m 4163.0079,-1411.6957 0,38.7795 m 0,10.6299 0,66.9291 m 0,10.63 0,66.9291 m 0,10.6299 0,66.9291 m 0,10.63 0,66.9291 m 0,10.6299 0,66.92913 m 0,10.62992 0,66.92913 m 0,10.62992 0,66.92913 m 0,10.62992 0,66.92913 m 0,10.62992 0,38.77953 m 6.7642,-708.66133 0,38.7795 m 0,10.6299 0,66.9291 m 0,10.63 0,66.9291 m 0,10.6299 0,66.9291 m 0,10.63 0,66.9291 m 0,10.6299 0,66.92913 m 0,10.62992 0,66.92913 m 0,10.62992 0,66.92913 m 0,10.62992 0,66.92913 m 0,10.62992 0,38.77953 m 6.7642,-708.66133 0,38.7795 m 0,10.6299 0,66.9291 m 0,10.63 0,66.9291 m 0,10.6299 0,66.9291 m 0,10.63 0,66.9291 m 0,10.6299 0,66.92913 m 0,10.62992 0,66.92913 m 0,10.62992 0,66.92913 m 0,10.62992 0,66.92913 m 0,10.62992 0,38.77953 m 6.7642,-708.66133 0,38.7795 m 0,10.6299 0,66.9291 m 0,10.63 0,66.9291 m 0,10.6299 0,66.9291 m 0,10.63 0,66.9291 m 0,10.6299 0,66.92913 m 0,10.62992 0,66.92913 m 0,10.62992 0,66.92913 m 0,10.62992 0,66.92913 m 0,10.62992 0,38.77953 m 6.7641,-708.66133 0,38.7795 m 0,10.6299 0,66.9291 m 0,10.6299 0,66.9292 m 0,10.6299 0,66.9291 m 0,10.6299 0,66.9292 m 0,10.6299 0,66.92913 m 0,10.62992 0,66.92913 m 0,10.62992 0,66.92913 m 0,10.62992 0,66.92913 m 0,10.62992 0,38.77953 m 6.7642,-708.66143 0,38.7796 m 0,10.6299 0,66.9291 m 0,10.6299 0,66.9292 m 0,10.6299 0,66.9291 m 0,10.6299 0,66.9292 m 0,10.6299 0,66.92913 m 0,10.62992 0,66.92913 m 0,10.62992 0,66.92913 m 0,10.62992 0,66.92913 m 0,10.62992 0,38.77953 m 6.7642,-708.66143 0,38.7796 m 0,10.6299 0,66.9291 m 0,10.6299 0,66.9292 m 0,10.6299 0,66.9291 m 0,10.6299 0,66.9292 m 0,10.6299 0,66.92913 m 0,10.62992 0,66.92913 m 0,10.62992 0,66.92913 m 0,10.62992 0,66.92913 m 0,10.62992 0,38.77953 m 6.7641,-708.66143 0,38.7796 m 0,10.6299 0,66.9291 m 0,10.6299 0,66.9292 m 0,10.6299 0,66.9291 m 0,10.6299 0,66.9292 m 0,10.6299 0,66.92913 m 0,10.62992 0,66.92913 m 0,10.62992 0,66.92913 m 0,10.62992 0,66.92913 m 0,10.62992 0,38.77953 m 6.7642,-708.66143 0,38.7796 m 0,10.6299 0,66.9291 m 0,10.6299 0,66.9292 m 0,10.6299 0,66.9291 m 0,10.6299 0,66.9292 m 0,10.6299 0,66.92913 m 0,10.62992 0,66.92913 m 0,10.62992 0,66.92913 m 0,10.62992 0,66.92913 m 0,10.62992 0,38.77953 m 6.7642,-708.66143 0,38.7796 m 0,10.6299 0,66.9291 m 0,10.6299 0,66.9292 m 0,10.6299 0,66.9291 m 0,10.6299 0,66.9292 m 0,10.6299 0,66.92913 m 0,10.62992 0,66.92913 m 0,10.62992 0,66.92913 m 0,10.62992 0,66.92913 m 0,10.62992 0,38.77953 m 6.7641,-708.66143 0,38.7796 m 0,10.6299 0,66.9291 m 0,10.6299 0,66.9292 m 0,10.6299 0,66.9291 m 0,10.6299 0,66.9292 m 0,10.6299 0,66.92913 m 0,10.62992 0,66.92913 m 0,10.62992 0,66.92913 m 0,10.62992 0,66.92913 m 0,10.62992 0,38.77953 m -64.2596,-698.03143 0,66.9291 m 0,10.6299 0,66.9291 m 0,10.63 0,66.9291 m 0,10.6299 0,66.9291 m 0,10.63 0,66.9291 m 0,10.6299 0,66.92916 m 0,10.62992 0,66.92913 m 0,10.62992 0,66.92913 m 0,10.62992 0,66.92913 m 0,10.62992 0,0 m 6.7642,-698.03143 0,66.9291 m 0,10.6299 0,66.9291 m 0,10.63 0,66.9291 m 0,10.6299 0,66.9291 m 0,10.63 0,66.9291 m 0,10.6299 0,66.92916 m 0,10.62992 0,66.92913 m 0,10.62992 0,66.92913 m 0,10.62992 0,66.92913 m 0,10.62992 0,0 m 6.7642,-698.03143 0,66.9291 m 0,10.6299 0,66.9291 m 0,10.63 0,66.9291 m 0,10.6299 0,66.9291 m 0,10.63 0,66.9291 m 0,10.6299 0,66.92916 m 0,10.62992 0,66.92913 m 0,10.62992 0,66.92913 m 0,10.62992 0,66.92913 m 0,10.62992 0,0 m 6.7641,-698.03143 0,66.9291 m 0,10.6299 0,66.9291 m 0,10.63 0,66.9291 m 0,10.6299 0,66.9291 m 0,10.63 0,66.9291 m 0,10.6299 0,66.92916 m 0,10.62992 0,66.92913 m 0,10.62992 0,66.92913 m 0,10.62992 0,66.92913 m 0,10.62992 0,0 m 6.7642,-698.03143 0,66.9291 m 0,10.6299 0,66.9291 m 0,10.63 0,66.9291 m 0,10.6299 0,66.9291 m 0,10.63 0,66.9291 m 0,10.6299 0,66.92916 m 0,10.62992 0,66.92913 m 0,10.62992 0,66.92913 m 0,10.62992 0,66.92913 m 0,10.62992 0,0 m 6.7642,-698.03143 0,66.9291 m 0,10.6299 0,66.9291 m 0,10.63 0,66.9291 m 0,10.6299 0,66.9291 m 0,10.63 0,66.9291 m 0,10.6299 0,66.92916 m 0,10.62992 0,66.92913 m 0,10.62992 0,66.92913 m 0,10.62992 0,66.92913 m 0,10.62992 0,0 m 6.7641,-698.03143 0,66.9291 m 0,10.6299 0,66.9291 m 0,10.63 0,66.9291 m 0,10.6299 0,66.9291 m 0,10.63 0,66.9291 m 0,10.6299 0,66.92916 m 0,10.62992 0,66.92913 m 0,10.62992 0,66.92913 m 0,10.62992 0,66.92913 m 0,10.62992 0,0 m 6.7642,-698.03143 0,66.9291 m 0,10.6299 0,66.9291 m 0,10.63 0,66.9291 m 0,10.6299 0,66.9291 m 0,10.63 0,66.9291 m 0,10.6299 0,66.92916 m 0,10.62992 0,66.92913 m 0,10.62992 0,66.92913 m 0,10.62992 0,66.92913 m 0,10.62992 0,0 m 6.7642,-698.03143 0,66.9291 m 0,10.6299 0,66.9291 m 0,10.63 0,66.9291 m 0,10.6299 0,66.9291 m 0,10.63 0,66.9291 m 0,10.6299 0,66.92916 m 0,10.62992 0,66.92913 m 0,10.62992 0,66.92913 m 0,10.62992 0,66.92913 m 0,10.62992 0,0 m 6.7642,-698.03143 0,66.9291 m 0,10.6299 0,66.9291 m 0,10.63 0,66.9291 m 0,10.6299 0,66.9291 m 0,10.63 0,66.9291 m 0,10.6299 0,66.92916 m 0,10.62992 0,66.92913 m 0,10.62992 0,66.92913 m 0,10.62992 0,66.92913 m 0,10.62992 0,0"
         style="fill:none;stroke:#ff0000;stroke-width:0.35433072"
         id="path4515">
        <desc
           id="desc4517">Hinge cut parameters: actual(requested)
cut length: 18.89 mm (19.00 mm)
gap length: 3.00 mm (3.00 mm)
separation distance: 0.95 mm (1.00 mm)</desc>
      </path>
    </g>
    <path
       id="path4613"
       style="fill:none;stroke:#ff0000"
       d="m 3429.1449,-2042.9043 0,39.3701 10.6299,0 0,39.37 -10.6299,0 0,39.3701 10.6299,0 0,39.3701 -10.6299,0 0,39.3701 10.6299,0 0,39.37 -10.6299,0 0,39.3701 10.6299,0 0,39.3701 -10.6299,0 0,39.3701 m 708.6615,-354.3307 0,39.3701 -10.6299,0 0,39.37 10.6299,0 0,39.3701 -10.6299,0 0,39.3702 10.6299,0 0,39.3701 -10.6299,0 0,39.37 10.6299,0 0,39.3701 -10.6299,0 0,39.3701 10.6299,0 0,39.3702 m 0,0 -37.298,0 0,10.6298 -37.298,0 0,-10.6298 -37.2979,0 0,10.6298 -37.298,0 0,-10.6298 -37.298,0 0,10.6298 -37.2979,0 0,-10.6298 -37.298,0 0,10.6298 -37.298,0 0,-10.6298 -37.298,0 0,10.6298 -37.2979,0 0,-10.6298 -37.298,0 0,10.6298 -37.298,0 0,-10.6298 -37.298,0 0,10.6298 -37.298,0 0,-10.6298 -37.298,0 0,10.6298 -37.2979,0 0,-10.6298 -37.298,0 0,10.6298 -37.298,0 0,-10.6298 -37.2979,0 m 0,-354.3307 37.2979,0 0,-10.6299 37.298,0 0,10.6299 37.298,0 0,-10.6299 37.2979,0 0,10.6299 37.298,0 0,-10.6299 37.298,0 0,10.6299 37.298,0 0,-10.6299 37.298,0 0,10.6299 37.298,0 0,-10.6299 37.2979,0 0,10.6299 37.298,0 0,-10.6299 37.298,0 0,10.6299 37.298,0 0,-10.6299 37.2979,0 0,10.6299 37.298,0 0,-10.6299 37.298,0 0,10.6299 37.2979,0 0,-10.6299 37.298,0 0,10.6299 37.298,0"
       inkscape:connector-curvature="0" />
    <path
       id="path4201"
       style="fill:none;stroke:#ff0000"
       d="m 4159.2787,-988.1585 0,-28.7394 -10.6299,0 0,-39.37 10.6299,0 0,-39.3701 -10.6299,0 0,-39.3701 10.6299,0 0,-39.3701 -10.6299,0 0,-39.37 10.6299,0 0,-39.3701 -10.6299,0 0,-39.3701 10.6299,0 m 32.1467,-55.6032 -4.7916,-9.4887 32.1468,-16.2332 4.7915,9.4888 32.1468,-16.2331 -4.7915,-9.4888 32.1467,-16.2331 4.7916,9.4888 32.1467,-16.2331 -4.7915,-9.4888 32.1468,-16.2331 4.7915,9.4887 32.1468,-16.2331 -4.7915,-9.4888 32.1466,-16.233 4.7916,9.4887 32.1467,-16.2331 -4.7915,-9.4888 32.1468,-16.2331 4.7915,9.4889 32.1469,-16.2408 0.7164,0 0,36.8395 10.6299,0 0,35.433 -10.6299,0 0,35.4331 10.6299,0 0,35.4331 -10.6299,0 0,35.433 10.6299,0 0,35.4331 -10.6299,0 0,35.4331 10.6299,0 0,35.4331 -10.6299,0 0,35.433 10.6299,0 0,35.4331 -10.6299,0 0,35.4331 10.6299,0 0,35.433 -10.6299,0 0,35.4331 10.6299,0 0,35.4331 -10.6299,0 0,24.8024 m -322.184,-359.9331 c -19.8907,11.6694 -32.2958,32.9641 -32.1455,56.0247 m 0,303.9084 0,-28.7394 -10.6299,0 0,-39.37 10.6299,0 0,-39.3701 -10.6299,0 0,-39.3701 10.6299,0 0,-39.3701 -10.6299,0 0,-39.37 10.6299,0 0,-39.3701 -10.6299,0 0,-39.3701 10.6299,0 m 32.1468,-55.6032 -4.7916,-9.4887 32.1468,-16.2332 4.7915,9.4888 32.1468,-16.2331 -4.7915,-9.4888 32.1467,-16.2331 4.7916,9.4888 32.1467,-16.2331 -4.7915,-9.4888 32.1468,-16.2331 4.7915,9.4887 32.1468,-16.2331 -4.7915,-9.4888 32.1466,-16.233 4.7916,9.4887 32.1467,-16.2331 -4.7915,-9.4888 32.1468,-16.2331 4.7915,9.4889 32.1468,-16.2408 0.7164,0 0,36.8395 10.6299,0 0,35.433 -10.6299,0 0,35.4331 10.6299,0 0,35.4331 -10.6299,0 0,35.433 10.6299,0 0,35.4331 -10.6299,0 0,35.4331 10.6299,0 0,35.4331 -10.6299,0 0,35.433 10.6299,0 0,35.4331 -10.6299,0 0,35.4331 10.6299,0 0,35.433 -10.6299,0 0,35.4331 10.6299,0 0,35.4331 -10.6299,0 0,24.8024 m -354.3307,0 39.3701,0 0,10.6299 39.37,0 0,-10.6299 39.3701,0 0,10.6299 39.3701,0 0,-10.6299 39.3701,0 0,10.6299 39.37,0 0,-10.6299 39.3701,0 0,10.6299 39.3701,0 0,-10.6299 39.3701,0"
       inkscape:connector-curvature="0" />
    <path
       d="m 4158.4363,-2044.2735 0,28.7394 -10.6299,0 0,39.37 10.6299,0 0,39.3701 -10.6299,0 0,39.3701 10.6299,0 0,39.3701 -10.6299,0 0,39.37 10.6299,0 0,39.3701 -10.6299,0 0,39.3701 10.6299,0 m 32.1467,55.6032 -4.7916,9.4887 32.1468,16.2332 4.7915,-9.4888 32.1468,16.2331 -4.7915,9.4888 32.1467,16.2331 4.7916,-9.4888 32.1467,16.2331 -4.7915,9.4888 32.1468,16.2331 4.7915,-9.4887 32.1468,16.2331 -4.7915,9.4888 32.1466,16.233 4.7916,-9.4887 32.1467,16.2331 -4.7915,9.4888 32.1468,16.2331 4.7915,-9.4889 32.1468,16.2408 0.7164,0 0,-36.8395 10.6299,0 0,-35.433 -10.6299,0 0,-35.4331 10.6299,0 0,-35.4331 -10.6299,0 0,-35.433 10.6299,0 0,-35.4331 -10.6299,0 0,-35.4331 10.6299,0 0,-35.4331 -10.6299,0 0,-35.433 10.6299,0 0,-35.4331 -10.6299,0 0,-35.4331 10.6299,0 0,-35.433 -10.6299,0 0,-35.4331 10.6299,0 0,-35.4331 -10.6299,0 0,-24.8024 m -322.184,359.9331 c -19.8907,-11.6694 -32.2958,-32.9641 -32.1454,-56.0247 m 0,-303.9084 0,28.7394 -10.6299,0 0,39.37 10.6299,0 0,39.3701 -10.6299,0 0,39.3701 10.6299,0 0,39.3701 -10.6299,0 0,39.37 10.6299,0 0,39.3701 -10.6299,0 0,39.3701 10.6299,0 m 32.1467,55.6032 -4.7916,9.4887 32.1468,16.2332 4.7915,-9.4888 32.1468,16.2331 -4.7915,9.4888 32.1467,16.2331 4.7916,-9.4888 32.1467,16.2331 -4.7915,9.4888 32.1468,16.2331 4.7915,-9.4887 32.1468,16.2331 -4.7915,9.4888 32.1466,16.233 4.7916,-9.4887 32.1467,16.2331 -4.7915,9.4888 32.1468,16.2331 4.7915,-9.4889 32.1468,16.2408 0.7164,0 0,-36.8395 10.6299,0 0,-35.433 -10.6299,0 0,-35.4331 10.6299,0 0,-35.4331 -10.6299,0 0,-35.433 10.6299,0 0,-35.4331 -10.6299,0 0,-35.4331 10.6299,0 0,-35.4331 -10.6299,0 0,-35.433 10.6299,0 0,-35.4331 -10.6299,0 0,-35.4331 10.6299,0 0,-35.433 -10.6299,0 0,-35.4331 10.6299,0 0,-35.4331 -10.6299,0 0,-24.8024 m -354.3307,0 39.3701,0 0,-10.6299 39.37,0 0,10.6299 39.3701,0 0,-10.6299 39.3701,0 0,10.6299 39.3701,0 0,-10.6299 39.37,0 0,10.6299 39.3701,0 0,-10.6299 39.3701,0 0,10.6299 39.3701,0"
       style="fill:none;stroke:#ff0000"
       id="path4222"
       inkscape:connector-curvature="0" />
    <g
       id="g4253"
       transform="translate(2062.465,242.90159)">
      <path
         id="path4239"
         style="fill:none;stroke:#ff0000"
         d="m 1350.9713,-2279.9154 0,-10.6299 -35.4331,0 0,10.6299 -35.4331,0 0,-10.6299 -35.4331,0 0,10.6299 -35.433,0 0,-10.6299 -35.4331,0 0,10.6299 -35.4331,0 0,-10.6299 -35.433,0 0,10.6299 -35.4331,0 0,-10.6299 -35.4331,0 0,10.6299 -35.43307,0 0,-10.6299 -35.433,0 0,10.6299 -35.4331,0 0,-10.6299 -35.4331,0 0,10.6299 -35.433,0 0,-10.6299 -35.4331,0 0,10.6299 m 531.49607,0 0,37.298 -10.6299,0 0,37.2979 10.6299,0 0,37.298 -10.6299,0 0,37.298 10.6299,0 0,37.2979 -10.6299,0 0,37.298 10.6299,0 0,37.298 -10.6299,0 0,37.2979 10.6299,0 0,37.298 -10.6299,0 0,37.298 10.6299,0 0,37.298 -10.6299,0 0,37.2979 10.6299,0 0,37.298 -10.6299,0 0,37.298 10.6299,0 0,37.2979 -10.6299,0 0,37.2981 10.6299,0 0,37.298 -10.6299,0 0,37.2979 10.6299,0 0,37.298 m -531.49607,0 0,-37.298 10.6299,0 0,-37.2979 -10.6299,0 0,-37.298 10.6299,0 0,-37.2981 -10.6299,0 0,-37.2979 10.6299,0 0,-37.298 -10.6299,0 0,-37.298 10.6299,0 0,-37.2979 -10.6299,0 0,-37.298 10.6299,0 0,-37.298 -10.6299,0 0,-37.298 10.6299,0 0,-37.2979 -10.6299,0 0,-37.298 10.6299,0 0,-37.298 -10.6299,0 0,-37.2979 10.6299,0 0,-37.298 -10.6299,0 0,-37.298 10.6299,0 0,-37.2979 -10.6299,0 0,-37.298 m 531.49607,708.6615 0,10.6299 -35.4331,0 0,-10.6299 -35.4331,0 0,10.6299 -35.4331,0 0,-10.6299 -35.433,0 0,10.6299 -35.4331,0 0,-10.6299 -35.4331,0 0,10.6299 -35.433,0 0,-10.6299 -35.4331,0 0,10.6299 -35.4331,0 0,-10.6299 -35.43307,0 0,10.6299 -35.433,0 0,-10.6299 -35.4331,0 0,10.6299 -35.4331,0 0,-10.6299 -35.433,0 0,10.6299 -35.4331,0 0,-10.6299"
         inkscape:connector-curvature="0" />
    </g>
    <g
       style="display:inline;stroke:#000000"
       inkscape:label="Hershey Text"
       transform="matrix(-0.2395104,0,0,-0.2395104,3569.8201,-2018.19)"
       id="g5437">
      <path
         d="m 6,-5 -1,0 0,15 -1,3 -1,1 -2,1 -2,0 -2,-1 -1,-1 -2,0 M 6,-5 6,10 5,13 3,15 1,16 -2,16 -4,15 -6,13 M 5,-2 3,-4 1,-5 l -3,0 -2,1 -2,2 -1,3 0,2 1,3 2,2 2,1 3,0 2,-1 2,-2 m 0,-8 -4,-2 -3,0 -2,1 -1,1 -1,3 0,2 1,3 1,1 2,1 3,0 4,-2 m -25,-11 0,14 1,0 m -1,-14 1,0 0,14 m 0,-8 1,-3 2,-2 2,-1 3,0 m -8,6 1,-2 2,-2 2,-1 3,0 0,-1 m -24,0 -2,1 -2,2 -1,3 0,2 1,3 2,2 2,1 3,0 2,-1 2,-2 1,-3 0,-2 -1,-3 -2,-2 -2,-1 -3,0 m 0,1 -2,1 -1,1 -1,3 0,2 1,3 1,1 2,1 3,0 2,-1 1,-1 1,-3 0,-2 -1,-3 -1,-1 -2,-1 -3,0 m -14,10 -1,1 0,1 1,1 1,0 1,-1 0,-1 -1,-1 -1,0 m 0,1 0,1 1,0 0,-1 -1,0 m -21,-12 0,14 1,0 m -1,-14 1,0 0,14 m 0,-10 3,-3 2,-1 3,0 2,1 1,3 0,10 m -11,-10 3,-2 2,-1 2,0 2,1 1,2 0,10 1,0 m -27,-14 -2,1 -2,2 -1,3 0,2 1,3 2,2 2,1 3,0 2,-1 2,-2 1,-3 0,-2 -1,-3 -2,-2 -2,-1 -3,0 m 0,1 -2,1 -1,1 -1,3 0,2 1,3 1,1 2,1 3,0 2,-1 1,-1 1,-3 0,-2 -1,-3 -1,-1 -2,-1 -3,0 m -13,-8 -1,1 0,1 1,1 1,0 1,-1 0,-1 -1,-1 -1,0 m 0,1 0,1 1,0 0,-1 -1,0 m 0,6 0,14 1,0 m -1,-14 1,0 0,14 m -21,-14 0,14 1,0 m -1,-14 1,0 0,14 m 0,-10 3,-3 2,-1 3,0 2,1 1,3 0,10 m -11,-10 3,-2 2,-1 2,0 2,1 1,2 0,10 1,0 m -32,-14 0,14 1,0 m -1,-14 1,0 0,14 m 0,-10 3,-3 2,-1 3,0 2,1 1,3 0,10 m -11,-10 3,-2 2,-1 2,0 2,1 1,2 0,10 1,0 m -21,-14 0,14 1,0 m -1,-14 1,0 0,14 m -1,-11 -2,-2 -2,-1 -3,0 -2,1 -2,2 -1,3 0,2 1,3 2,2 2,1 3,0 2,-1 2,-2 m 0,-8 -4,-2 -3,0 -2,1 -1,1 -1,3 0,2 1,3 1,1 2,1 3,0 4,-2 m -20,-18 0,21 1,0 m -1,-21 1,0 0,21 m -27,-9 18,0 m -38,-12 0,21 1,0 m -1,-21 1,0 0,21 m 0,-11 2,-2 2,-1 3,0 2,1 2,2 1,3 0,2 -1,3 -2,2 -2,1 -3,0 -2,-1 -2,-2 m 0,-8 4,-2 3,0 2,1 1,1 1,3 0,2 -1,3 -1,1 -2,1 -3,0 -4,-2 m -10,-11 0,14 1,0 m -1,-14 1,0 0,14 m -1,-11 -2,-2 -2,-1 -3,0 -2,1 -2,2 -1,3 0,2 1,3 2,2 2,1 3,0 2,-1 2,-2 m 0,-8 -4,-2 -3,0 -2,1 -1,1 -1,3 0,2 1,3 1,1 2,1 3,0 4,-2 m -20,-18 0,21 1,0 m -1,-21 1,0 0,21 m -21,-21 0,21 1,0 m -1,-21 1,0 0,21 m 0,-11 2,-2 2,-1 3,0 2,1 2,2 1,3 0,2 -1,3 -2,2 -2,1 -3,0 -2,-1 -2,-2 m 0,-8 4,-2 3,0 2,1 1,1 1,3 0,2 -1,3 -1,1 -2,1 -3,0 -4,-2 m -10,-11 0,14 1,0 m -1,-14 1,0 0,14 m -1,-11 -2,-2 -2,-1 -3,0 -2,1 -2,2 -1,3 0,2 1,3 2,2 2,1 3,0 2,-1 2,-2 m 0,-8 -4,-2 -3,0 -2,1 -1,1 -1,3 0,2 1,3 1,1 2,1 3,0 4,-2 m -18,-18 -2,0 -2,1 -1,3 0,17 1,0 m 4,-21 0,1 -2,0 -2,1 m 1,-1 -1,3 0,17 m -4,-14 7,0 0,1 m -7,-1 0,1 7,0 m -13,-12 -18,32 1,0 m 17,-32 1,0 -18,32 m -6,-32 -18,32 1,0 m 17,-32 1,0 -18,32 m -9,-21 -1,1 0,1 1,1 1,0 1,-1 0,-1 -1,-1 -1,0 m 0,1 0,1 1,0 0,-1 -1,0 m 0,10 -1,1 0,1 1,1 1,0 1,-1 0,-1 -1,-1 -1,0 m 0,1 0,1 1,0 0,-1 -1,0 m -21,-12 0,21 1,0 m -1,-21 1,0 0,21 m 0,-18 2,-2 2,-1 3,0 2,1 2,2 1,3 0,2 -1,3 -2,2 -2,1 -3,0 -2,-1 -2,-2 m 0,-8 4,-2 3,0 2,1 1,1 1,3 0,2 -1,3 -1,1 -2,1 -3,0 -4,-2 m -11,-18 0,21 1,0 m -1,-21 1,0 0,21 m -4,-14 7,0 0,1 m -7,-1 0,1 7,0 m -15,-8 0,21 1,0 m -1,-21 1,0 0,21 m -4,-14 7,0 0,1 m -7,-1 0,1 7,0 m -25,-8 0,21 1,0 m -1,-21 1,0 0,21 m 0,-10 3,-3 2,-1 3,0 2,1 1,3 0,10 m -11,-10 3,-2 2,-1 2,0 2,1 1,2 0,10 1,0 m 352.057513,-78.531597 -28.190492,-48.831223 c 0.04818,1.32911 0.1113,2.64461 0.188379,3.94614 0.04817,1.11283 0.08804,2.29311 0.116283,3.54049 0.04817,1.22064 0.07309,2.30589 0.07309,3.25592 l 0,38.088673 -6.355365,0 0,-57.337163 8.299949,0 28.489008,49.157982 c -0.07808,-1.329281 -0.151168,-2.658728 -0.222267,-3.988341 -0.04818,-1.13891 -0.09801,-2.373171 -0.149507,-3.702784 -0.04817,-1.356524 -0.07309,-2.645106 -0.07309,-3.865912 l 0,-37.600945 6.430783,0 0,57.337163 -8.599627,0 z m -44.080068,-28.93271 c 0,4.476232 -0.598027,8.545639 -1.793914,12.208056 -1.171635,3.662417 -2.8795,6.795746 -5.123261,9.399821 -2.2431,2.604407 -4.98456,4.61195 -8.2247,6.02263 -3.23998,1.411011 -6.91635,2.116517 -11.02895,2.116517 -4.33752,0 -8.13865,-0.732583 -11.40337,-2.197583 -3.2654,-1.491911 -5.9826,-3.553443 -8.15128,-6.184928 -2.16801,-2.65906 -3.80046,-5.806343 -4.89734,-9.441516 -1.09705,-3.635506 -1.64557,-7.609727 -1.64557,-11.922997 0,-4.476233 0.57344,-8.518393 1.72049,-12.126493 1.14638,-3.60843 2.82883,-6.67415 5.04751,-9.19699 2.21818,-2.55025 4.94735,-4.50347 8.18749,-5.85983 3.26506,-1.3836 7.00389,-2.07549 11.21649,-2.07549 4.18736,0 7.90127,0.69189 11.14191,2.07549 3.2649,1.38393 5.99406,3.35078 8.18765,5.90036 2.217854,2.55042 3.900303,5.6296 5.047352,9.23769 1.146384,3.60793 1.719493,7.62302 1.719493,12.045263 z m -7.290445,0 c 0,-3.445463 -0.41115,-6.578793 -1.2336,-9.399823 -0.7977,-2.82185 -1.99425,-5.23639 -3.58982,-7.24377 -1.56999,-2.0077 -3.52653,-3.5541 -5.86947,-4.63936 -2.34294,-1.08475 -5.04735,-1.62713 -8.11307,-1.62713 -3.14063,0 -5.89488,0.54238 -8.2629,1.62713 -2.36736,1.08526 -4.34882,2.63166 -5.94439,4.63936 -1.57048,2.00738 -2.75458,4.42192 -3.55211,7.24377 -0.77279,2.82103 -1.15918,5.95436 -1.15918,9.399823 0,3.445134 0.39902,6.605374 1.19689,9.480887 0.82245,2.8491 2.01867,5.317955 3.58882,7.406564 1.59557,2.061698 3.56474,3.676038 5.90768,4.842689 2.36735,1.139574 5.08422,1.709361 8.15077,1.709361 3.28965,0 6.11848,-0.583409 8.4865,-1.75006 2.39311,-1.166319 4.34982,-2.780327 5.86997,-4.842025 1.5454,-2.089273 2.67949,-4.571584 3.40228,-7.447096 0.7477,-2.875846 1.12163,-6.009341 1.12163,-9.40032 z m -62.77389,28.93271 0,-57.337163 7.14077,0 0,57.337163 z m -21.9466,0 -28.19032,-48.831223 c 0.0482,1.32911 0.1113,2.64461 0.18838,3.94614 0.0482,1.11283 0.088,2.29311 0.11628,3.54049 0.0482,1.22064 0.0731,2.30589 0.0731,3.25592 l 0,38.088673 -6.35603,0 0,-57.337163 8.30012,0 28.48934,49.157982 c -0.0781,-1.329281 -0.15117,-2.658728 -0.2221,-3.988341 -0.0482,-1.13891 -0.098,-2.373171 -0.14951,-3.702784 -0.0482,-1.356524 -0.0731,-2.645106 -0.0731,-3.865912 l 0,-37.600945 6.43078,0 0,57.337163 -8.59946,0 z m -55.3336,0 -28.19083,-48.831223 c 0.0482,1.32911 0.1113,2.64461 0.18838,3.94614 0.0482,1.11283 0.088,2.29311 0.11628,3.54049 0.0482,1.22064 0.0731,2.30589 0.0731,3.25592 l 0,38.088673 -6.35636,0 0,-57.337163 8.29994,0 28.48984,49.157982 c -0.0781,-1.329281 -0.15117,-2.658728 -0.2221,-3.988341 -0.0482,-1.13891 -0.098,-2.373171 -0.1495,-3.702784 -0.0482,-1.356524 -0.0731,-2.645106 -0.0731,-3.865912 l 0,-37.600945 6.43029,0 0,57.337163 -8.59897,0 z m -47.96907,0 -6.01931,-16.765187 -24.00314,0 -6.05602,16.765187 -7.40357,0 21.49823,-57.337163 8.11324,0 21.16151,57.337163 z m -14.91729,-41.750923 c -0.39868,-1.08541 -0.78507,-2.18429 -1.15917,-3.29645 -0.34968,-1.1125 -0.66132,-2.11619 -0.93475,-3.01107 -0.2736,-0.92262 -0.51048,-1.68228 -0.71049,-2.27881 -0.17393,-0.62411 -0.27526,-1.00386 -0.30433,-1.13941 -0.0482,0.13455 -0.16114,0.51497 -0.33805,1.13941 -0.17393,0.62377 -0.41065,1.39672 -0.71049,2.31885 -0.27376,0.92278 -0.5977,1.94043 -0.97179,3.05259 -0.34935,1.11216 -0.71083,2.21087 -1.08443,3.29613 l -6.72979,18.841167 19.70349,0 -6.76701,-18.922407 z m -65.0547,41.750923 0,-57.337163 7.14078,0 0,50.988941 26.62017,0 0,6.348222 z m 146.96546,-334.379903 -32.19744,0.0772 -61.76256,178.99523 27.86108,0 14.69451,-42.32376 66.1966,-0.15449 36.26386,107.18427 35.39207,0.0581 -86.44812,-243.81615 z m -18.21873,41.47169 23.89168,68.84918 -47.68667,0.11595 23.79499,-68.96462 z m 115.70161,-45.38503 0.13954,114.61867 54.328086,-0.0532 c 50.846411,-0.50716 44.966643,-53.53583 17.173839,-58.76151 25.027594,-11.84196 18.932038,-55.30606 -10.009809,-55.79922 z m 53.127713,19.22572 c 16.763858,0.0532 16.918349,28.57484 0,28.67384 l -30.649383,0 0,-28.65452 z m -30.552363,46.33172 34.095175,0 c 18.276201,1.00322 17.148921,28.72895 0,30.14512 l -34.211465,0 z m -296.26272,-115.50984 c -12.36836,0 -22.40242,10.03405 -22.40242,22.40247 l 0,389.27254 c 0,12.36753 10.03406,22.401591 22.40242,22.401591 l 390.0946404,0 c 12.3680279,0 22.4020896,-10.034061 22.4020896,-22.401591 l 0,-389.27254 c 0,-12.36842 -10.0340617,-22.40247 -22.4020896,-22.40247 z m 274.23124,183.04427 0.13455,114.61923 54.327098,-0.0581 c 50.846909,-0.50766 44.967141,-53.53637 17.173839,-58.76197 25.028092,-11.84242 18.932536,-55.30664 -10.009809,-55.7993 z m 53.126719,19.22572 c 16.764356,0.058 16.919345,28.57529 0,28.67397 l -30.648379,0 0,-28.65465 z m -30.551699,46.33121 34.095507,0 c 18.275703,1.00419 17.149419,28.72955 0,30.14571 l -34.211457,0 z m -269.73591,-197.10028 76.9468,0.11113 0.0581,19.63821 -54.59886,-0.11113 -0.0581,29.48436 45.58261,0.058 0,18.03365 -45.52713,0 0,47.46296 -22.40342,0 z m -0.0581,131.60131 22.12816,0 0,94.92638 58.63688,0 0,19.52708 -80.70906,0 z"
         style="fill:none;stroke:#000000"
         transform="translate(419,0)"
         id="path5487"
         inkscape:connector-curvature="0"
         sodipodi:nodetypes="ccccccccccccccccccccccccccccccccccccccccccccccccccccccccccccccccccccccccccccccccccccccccccccccccccccccccccccccccccccccccccccccccccccccccccccccccccccccccccccccccccccccccccccccccccccccccccccccccccccccccccccccccccccccccccccccccccccccccccccccccccccccccccccccccccccccccccccccccccccccccccccccccccccccccccccccccccccccccccccccccccccccccccccccccccccccccccccccccccccccccccccccccccccccccccccccccccccccccccccccccccccccccccccccccccccccccccccccccccccccccccccccccccccccccccccccccccccccccccccccccccccccccccccccccccccccccccccccccccccccccccccccccccccccccccccscccccccscccccscccscccscccscccsscccscccscccscccscccccccccscccccccscccccccccscccccccscccccccccccccccccccccccccccccccccccccccccccccccccccccccccccccccccssssssssscccccccccccccccccccccccccccccccccc" />
    </g>
  </g>
  <g
     inkscape:groupmode="layer"
     id="layer2"
     inkscape:label="Monting"
     style="display:none">
    <text
       sodipodi:linespacing="125%"
       id="text4625"
       y="1058.0432"
       x="4306.5112"
       style="font-style:normal;font-weight:normal;font-size:40px;line-height:125%;font-family:Sans;letter-spacing:0px;word-spacing:0px;fill:#000000;fill-opacity:1;stroke:none;stroke-width:1px;stroke-linecap:butt;stroke-linejoin:miter;stroke-opacity:1"
       xml:space="preserve"><tspan
         y="1058.0432"
         x="4306.5112"
         id="tspan4627"
         sodipodi:role="line">B2</tspan></text>
    <text
       sodipodi:linespacing="125%"
       id="text4629"
       y="465.05508"
       x="3768.2522"
       style="font-style:normal;font-weight:normal;font-size:40px;line-height:125%;font-family:Sans;letter-spacing:0px;word-spacing:0px;fill:#000000;fill-opacity:1;stroke:none;stroke-width:1px;stroke-linecap:butt;stroke-linejoin:miter;stroke-opacity:1"
       xml:space="preserve"><tspan
         y="465.05508"
         x="3768.2522"
         id="tspan4631"
         sodipodi:role="line">A</tspan></text>
    <text
       xml:space="preserve"
       style="font-style:normal;font-weight:normal;font-size:40px;line-height:125%;font-family:Sans;letter-spacing:0px;word-spacing:0px;fill:#000000;fill-opacity:1;stroke:none;stroke-width:1px;stroke-linecap:butt;stroke-linejoin:miter;stroke-opacity:1"
       x="3768.2522"
       y="357.75699"
       id="text4617"
       sodipodi:linespacing="125%"><tspan
         sodipodi:role="line"
         id="tspan4619"
         x="3768.2522"
         y="357.75699">A</tspan></text>
    <text
       xml:space="preserve"
       style="font-style:normal;font-weight:normal;font-size:40px;line-height:125%;font-family:Sans;letter-spacing:0px;word-spacing:0px;fill:#000000;fill-opacity:1;stroke:none;stroke-width:1px;stroke-linecap:butt;stroke-linejoin:miter;stroke-opacity:1"
       x="3461.0706"
       y="229.52298"
       id="text4621"
       sodipodi:linespacing="125%"><tspan
         sodipodi:role="line"
         id="tspan4623"
         x="3461.0706"
         y="229.52298">B2</tspan></text>
    <text
       sodipodi:linespacing="125%"
       id="text4633"
       y="229.52298"
       x="4052.3567"
       style="font-style:normal;font-weight:normal;font-size:40px;line-height:125%;font-family:Sans;letter-spacing:0px;word-spacing:0px;fill:#000000;fill-opacity:1;stroke:none;stroke-width:1px;stroke-linecap:butt;stroke-linejoin:miter;stroke-opacity:1"
       xml:space="preserve"><tspan
         y="229.52298"
         x="4052.3567"
         id="tspan4635"
         sodipodi:role="line">B1</tspan></text>
    <text
       xml:space="preserve"
       style="font-style:normal;font-weight:normal;font-size:40px;line-height:125%;font-family:Sans;letter-spacing:0px;word-spacing:0px;fill:#000000;fill-opacity:1;stroke:none;stroke-width:1px;stroke-linecap:butt;stroke-linejoin:miter;stroke-opacity:1"
       x="4310.207"
       y="63.570145"
       id="text4637"
       sodipodi:linespacing="125%"><tspan
         sodipodi:role="line"
         id="tspan4639"
         x="4310.207"
         y="63.570145">B1</tspan></text>
    <text
       xml:space="preserve"
       style="font-style:normal;font-weight:normal;font-size:40px;line-height:125%;font-family:Sans;letter-spacing:0px;word-spacing:0px;fill:#000000;fill-opacity:1;stroke:none;stroke-width:1px;stroke-linecap:butt;stroke-linejoin:miter;stroke-opacity:1"
       x="3476.3508"
       y="572.04956"
       id="text4650"
       sodipodi:linespacing="125%"><tspan
         sodipodi:role="line"
         id="tspan4652"
         x="3476.3508"
         y="572.04956">C2</tspan></text>
    <text
       sodipodi:linespacing="125%"
       id="text4654"
       y="912.04956"
       x="4170.0918"
       style="font-style:normal;font-weight:normal;font-size:40px;line-height:125%;font-family:Sans;letter-spacing:0px;word-spacing:0px;fill:#000000;fill-opacity:1;stroke:none;stroke-width:1px;stroke-linecap:butt;stroke-linejoin:miter;stroke-opacity:1"
       xml:space="preserve"><tspan
         y="912.04956"
         x="4170.0918"
         id="tspan4656"
         sodipodi:role="line">C2</tspan></text>
    <text
       sodipodi:linespacing="125%"
       id="text4658"
       y="177.57646"
       x="4174.2036"
       style="font-style:normal;font-weight:normal;font-size:40px;line-height:125%;font-family:Sans;letter-spacing:0px;word-spacing:0px;fill:#000000;fill-opacity:1;stroke:none;stroke-width:1px;stroke-linecap:butt;stroke-linejoin:miter;stroke-opacity:1"
       xml:space="preserve"><tspan
         y="177.57646"
         x="4174.2036"
         id="tspan4660"
         sodipodi:role="line">C1</tspan></text>
    <text
       xml:space="preserve"
       style="font-style:normal;font-weight:normal;font-size:40px;line-height:125%;font-family:Sans;letter-spacing:0px;word-spacing:0px;fill:#000000;fill-opacity:1;stroke:none;stroke-width:1px;stroke-linecap:butt;stroke-linejoin:miter;stroke-opacity:1"
       x="4064.7869"
       y="572.04956"
       id="text4662"
       sodipodi:linespacing="125%"><tspan
         sodipodi:role="line"
         id="tspan4664"
         x="4064.7869"
         y="572.04956">C1</tspan></text>
    <text
       xml:space="preserve"
       style="font-style:normal;font-weight:normal;font-size:40px;line-height:125%;font-family:Sans;letter-spacing:0px;word-spacing:0px;fill:#000000;fill-opacity:1;stroke:none;stroke-width:1px;stroke-linecap:butt;stroke-linejoin:miter;stroke-opacity:1"
       x="4442.2036"
       y="233.57646"
       id="text4296"
       sodipodi:linespacing="125%"><tspan
         sodipodi:role="line"
         id="tspan4298"
         x="4442.2036"
         y="233.57646">D1</tspan></text>
    <text
       sodipodi:linespacing="125%"
       id="text4300"
       y="717.57648"
       x="3128.2036"
       style="font-style:normal;font-weight:normal;font-size:40px;line-height:125%;font-family:Sans;letter-spacing:0px;word-spacing:0px;fill:#000000;fill-opacity:1;stroke:none;stroke-width:1px;stroke-linecap:butt;stroke-linejoin:miter;stroke-opacity:1"
       xml:space="preserve"><tspan
         y="717.57648"
         x="3128.2036"
         id="tspan4302"
         sodipodi:role="line">D1</tspan></text>
    <text
       xml:space="preserve"
       style="font-style:normal;font-weight:normal;font-size:40px;line-height:125%;font-family:Sans;letter-spacing:0px;word-spacing:0px;fill:#000000;fill-opacity:1;stroke:none;stroke-width:1px;stroke-linecap:butt;stroke-linejoin:miter;stroke-opacity:1"
       x="3130.2036"
       y="65.576477"
       id="text4304"
       sodipodi:linespacing="125%"><tspan
         sodipodi:role="line"
         id="tspan4306"
         x="3130.2036"
         y="65.576477">D2</tspan></text>
    <text
       sodipodi:linespacing="125%"
       id="text4308"
       y="851.57648"
       x="4448.2036"
       style="font-style:normal;font-weight:normal;font-size:40px;line-height:125%;font-family:Sans;letter-spacing:0px;word-spacing:0px;fill:#000000;fill-opacity:1;stroke:none;stroke-width:1px;stroke-linecap:butt;stroke-linejoin:miter;stroke-opacity:1"
       xml:space="preserve"><tspan
         y="851.57648"
         x="4448.2036"
         id="tspan4310"
         sodipodi:role="line">D2</tspan></text>
  </g>
  <g
     inkscape:groupmode="layer"
     id="layer4"
     inkscape:label="deco" />
  <g
     inkscape:groupmode="layer"
     id="layer3"
     inkscape:label="old"
     style="display:none">
    <path
       transform="translate(0,2065.7481)"
       inkscape:connector-curvature="0"
       d="m -1585.2894,-1882.5723 37.2979,0 0,10.6299 37.298,0 0,-10.6299 37.298,0 0,10.6299 37.2979,0 0,-10.6299 37.298,0 0,10.6299 37.298,0 0,-10.6299 37.2979,0 0,10.6299 37.298,0 0,-10.6299 37.298,0 0,10.6299 37.2979,0 0,-10.6299 37.298,0 0,10.6299 37.298,0 0,-10.6299 37.298,0 0,10.6299 37.2979,0 0,-10.6299 37.298,0 0,10.6299 37.29803,0 0,-10.6299 37.2979,0 0,10.6299 37.298,0 0,-10.6299 37.298,0 0,39.3701 -10.6299,0 0,39.37 10.6299,0 0,39.3701 -10.6299,0 0,39.3701 10.6299,0 0,39.3701 -10.6299,0 0,39.37 10.6299,0 0,39.3701 -10.6299,0 0,39.3701 10.6299,0 0,39.3701 -37.298,0 0,-10.6299 -37.298,0 0,10.6299 -37.2979,0 0,-10.6299 -37.29803,0 0,10.6299 -37.298,0 0,-10.6299 -37.2979,0 0,10.6299 -37.298,0 0,-10.6299 -37.298,0 0,10.6299 -37.298,0 0,-10.6299 -37.2979,0 0,10.6299 -37.298,0 0,-10.6299 -37.298,0 0,10.6299 -37.2979,0 0,-10.6299 -37.298,0 0,10.6299 -37.298,0 0,-10.6299 -37.2979,0 0,10.6299 -37.298,0 0,-10.6299 -37.298,0 0,10.6299 -37.2979,0 0,-39.3701 10.6299,0 0,-39.3701 -10.6299,0 0,-39.3701 10.6299,0 0,-39.37 -10.6299,0 0,-39.3701 10.6299,0 0,-39.3701 -10.6299,0 0,-39.3701 10.6299,0 0,-39.37 -10.6299,0 0,-39.3701 z"
       id="box_bottom"
       style="fill:none;stroke:#ff0000" />
    <path
       transform="translate(0,2065.7481)"
       inkscape:connector-curvature="0"
       d="m -847.34907,-1893.2022 37.298,0 0,10.6299 37.2979,0 0,-10.6299 37.298,0 0,10.6299 37.298,0 0,-10.6299 37.2979,0 0,10.6299 37.298,0 0,-10.6299 37.298,0 0,10.6299 37.2979,0 0,-10.6299 37.298,0 0,10.6299 37.298,0 0,-10.6299 37.298,0 0,10.6299 37.2979,0 0,-10.6299 37.298,0 0,10.6299 37.298,0 0,-10.6299 37.2979,0 0,10.6299 37.298,0 0,-10.6299 37.298,0 0,10.6299 37.2979,0 0,-10.6299 37.298,0 0,39.3701 -10.6299,0 0,39.37 10.6299,0 0,39.3701 -10.6299,0 0,39.3701 10.6299,0 0,39.3701 -10.6299,0 0,39.37 10.6299,0 0,39.3701 -10.6299,0 0,39.3701 10.6299,0 0,39.3701 -37.298,0 0,-10.6299 -37.2979,0 0,10.6299 -37.298,0 0,-10.6299 -37.298,0 0,10.6299 -37.2979,0 0,-10.6299 -37.298,0 0,10.6299 -37.298,0 0,-10.6299 -37.2979,0 0,10.6299 -37.298,0 0,-10.6299 -37.298,0 0,10.6299 -37.298,0 0,-10.6299 -37.2979,0 0,10.6299 -37.298,0 0,-10.6299 -37.298,0 0,10.6299 -37.2979,0 0,-10.6299 -37.298,0 0,10.6299 -37.298,0 0,-10.6299 -37.2979,0 0,10.6299 -37.298,0 0,-39.3701 10.6299,0 0,-39.3701 -10.6299,0 0,-39.3701 10.6299,0 0,-39.37 -10.6299,0 0,-39.3701 10.6299,0 0,-39.3701 -10.6299,0 0,-39.3701 10.6299,0 0,-39.37 -10.6299,0 0,-39.3701 z"
       id="box_top"
       style="fill:none;stroke:#ff0000" />
    <path
       transform="translate(0,2065.7481)"
       inkscape:connector-curvature="0"
       d="m -1585.2895,-2215.6432 37.298,0 0,-10.6299 37.2979,0 0,10.6299 37.298,0 0,-10.6299 37.298,0 0,10.6299 37.2979,0 0,-10.6299 37.298,0 0,10.6299 37.298,0 0,-10.6299 37.2979,0 0,10.6299 37.298,0 0,-10.6299 37.298,0 0,10.6299 37.298,0 0,-10.6299 37.2979,0 0,10.6299 37.298,0 0,-10.6299 37.298,0 0,10.6299 37.2979,0 0,-10.6299 37.29803,0 0,10.6299 37.298,0 0,-10.6299 37.2979,0 0,10.6299 37.298,0 0,37.0079 -10.6299,0 0,37.0079 10.6299,0 0,37.0078 -10.6299,0 0,37.0079 10.6299,0 0,37.0079 -10.6299,0 0,37.0079 10.6299,0 0,37.0078 -10.6299,0 0,37.0079 10.6299,0 0,37.0079 -37.298,0 0,10.6299 -37.2979,0 0,-10.6299 -37.298,0 0,10.6299 -37.29803,0 0,-10.6299 -37.2979,0 0,10.6299 -37.298,0 0,-10.6299 -37.298,0 0,10.6299 -37.2979,0 0,-10.6299 -37.298,0 0,10.6299 -37.298,0 0,-10.6299 -37.298,0 0,10.6299 -37.2979,0 0,-10.6299 -37.298,0 0,10.6299 -37.298,0 0,-10.6299 -37.2979,0 0,10.6299 -37.298,0 0,-10.6299 -37.298,0 0,10.6299 -37.2979,0 0,-10.6299 -37.298,0 0,-37.0079 10.6299,0 0,-37.0079 -10.6299,0 0,-37.0078 10.6299,0 0,-37.0079 -10.6299,0 0,-37.0079 10.6299,0 0,-37.0079 -10.6299,0 0,-37.0078 10.6299,0 0,-37.0079 -10.6299,0 0,-37.0079 z"
       id="box_font"
       style="fill:none;stroke:#ff0000" />
    <path
       transform="translate(0,2065.7481)"
       inkscape:connector-curvature="0"
       d="m -1585.2894,-1871.9424 0,28.7402 10.63,0 0,39.37 -10.63,0 0,39.3701 10.63,0 0,39.3701 -10.63,0 0,39.3701 10.63,0 0,39.3701 -10.63,0 0,39.37 10.63,0 0,39.3701 -10.63,0 0,28.7402 -37.0078,0 0,10.6299 -37.0079,0 0,-10.6299 -37.0079,0 0,10.6299 -37.0079,0 0,-10.6299 -37.0078,0 0,10.6299 -37.0079,0 0,-10.6299 -37.0079,0 0,10.6299 -37.0079,0 0,-10.6299 -37.0078,0 0,-28.7402 -10.6299,0 0,-39.3701 10.6299,0 0,-39.37 -10.6299,0 0,-39.3701 10.6299,0 0,-39.3701 -10.6299,0 0,-39.3701 10.6299,0 0,-39.3701 -10.6299,0 0,-39.37 10.6299,0 0,-28.7402 37.0078,0 0,-10.6299 37.0079,0 0,10.6299 37.0079,0 0,-10.6299 37.0079,0 0,10.6299 37.0078,0 0,-10.6299 37.0079,0 0,10.6299 37.0079,0 0,-10.6299 37.0079,0 0,10.6299 37.0078,0 z"
       id="box_left_side"
       style="fill:none;stroke:#ff0000" />
    <path
       transform="translate(0,2065.7481)"
       inkscape:connector-curvature="0"
       d="m -1556.0105,-1152.651 28.7401,0 0,-10.63 39.3701,0 0,10.63 39.3701,0 0,-10.63 39.3701,0 0,10.63 39.37,0 0,-10.63 39.3701,0 0,10.63 39.3701,0 0,-10.63 39.3701,0 0,10.63 28.7401,0 0,37.0078 10.63,0 0,37.0079 -10.63,0 0,37.0079 10.63,0 0,37.0079 -10.63,0 0,37.00785 10.63,0 0,37.00787 -10.63,0 0,37.00787 10.63,0 0,37.00788 -10.63,0 0,37.00787 -28.7401,0 0,10.62992 -39.3701,0 0,-10.62992 -39.3701,0 0,10.62992 -39.3701,0 0,-10.62992 -39.37,0 0,10.62992 -39.3701,0 0,-10.62992 -39.3701,0 0,10.62992 -39.3701,0 0,-10.62992 -28.7401,0 0,-37.00787 -10.6299,0 0,-37.00788 10.6299,0 0,-37.00787 -10.6299,0 0,-37.00787 10.6299,0 0,-37.00785 -10.6299,0 0,-37.0079 10.6299,0 0,-37.0079 -10.6299,0 0,-37.0079 10.6299,0 0,-37.0078 z"
       id="box_right_side"
       style="fill:none;stroke:#ff0000" />
    <circle
       transform="translate(0,2065.7481)"
       r="51.292679"
       cy="-1716.0369"
       cx="-1409.7053"
       id="path4720"
       style="fill:none;fill-opacity:1;stroke:#ff0000;stroke-width:0.35433072;stroke-miterlimit:4;stroke-dasharray:none;stroke-dashoffset:0;stroke-opacity:1" />
    <circle
       transform="translate(0,2065.7481)"
       style="fill:none;fill-opacity:1;stroke:#ff0000;stroke-width:0.35433072;stroke-miterlimit:4;stroke-dasharray:none;stroke-dashoffset:0;stroke-opacity:1"
       id="circle4722"
       cx="-1014.9141"
       cy="-1716.0369"
       r="51.292679" />
    <path
       transform="translate(0,2065.7481)"
       inkscape:connector-curvature="0"
       d="m -721.79617,-635.40586 10.6299,0 0,39.3701 -10.6299,0 0,39.37 10.6299,0 0,39.3701 -10.6299,0 0,39.3701 10.6299,0 0,39.37011 -10.6299,0 0,39.36999 10.6299,0 0,39.37011 -10.6299,0 0,39.3701 10.6299,0 0,39.3701 -10.6299,0 z"
       id="path4779"
       style="fill:none;stroke:#00ff00" />
    <path
       transform="translate(0,2065.7481)"
       id="path4433"
       style="fill:none;fill-rule:evenodd;stroke:#000000;stroke-width:1.15180147px;stroke-linecap:butt;stroke-linejoin:miter;stroke-opacity:1"
       d="m -1328.3028,-658.71553 67.6417,0 m -382.6023,0 39.3701,0 0,10.6299 39.37,0 0,-10.6299 39.3701,0 0,10.6299 39.3701,0 0,-10.6299 39.3701,0 0,10.6299 39.37,0 0,-10.6299 39.3701,0 0,10.6299 39.3701,0 0,-10.6299 m -314.9606,354.3308 0,-39.3701 10.6299,0 0,-39.3701 -10.6299,0 0,-39.3701 10.6299,0 0,-39.37 -10.6299,0 0,-39.3701 10.6299,0 0,-39.3702 -10.6299,0 0,-39.3701 10.6299,0 0,-39.37 -10.6299,0 0,-39.3701 m 314.9606,354.3308 67.6417,0 m 0,0 0,-10.6299 36.0129,0 0,10.6299 36.0129,0 0,-10.6299 36.0128,0 0,10.6299 36.0129,0 0,-10.6299 36.0129,0 0,10.6299 36.0129,0 0,-10.6299 36.0129,0 0,10.6299 36.01291,0 0,-10.6299 36.0129,0 0,10.6299 36.0128,0 0,-354.3308 -36.0128,0 0,10.6299 -36.0129,0 0,-10.6299 -36.01291,0 0,10.6299 -36.0129,0 0,-10.6299 -36.0129,0 0,10.6299 -36.0129,0 0,-10.6299 -36.0129,0 0,10.6299 -36.0128,0 0,-10.6299 -36.0129,0 0,10.6299 -36.0129,0 0,-10.6299 m -382.6023,354.3308 39.3701,0 0,-10.63 39.37,0 0,10.63 39.3701,0 0,-10.63 39.3701,0 0,10.63 39.3701,0 0,-10.63 39.37,0 0,10.63 39.3701,0 0,-10.63 39.3701,0 0,10.63"
       inkscape:connector-curvature="0"
       sodipodi:nodetypes="cccccccccccccccccccccccccccccccccccccccccccccccccccccccccccccccccccccccccccccccccccccccccccccccccc" />
    <path
       transform="translate(0,2065.7481)"
       style="fill:none;stroke:#ff0000"
       d="m -1397.8547,206.31038 0,37.298 -10.6299,0 0,37.2979 10.6299,0 0,37.298 -10.6299,0 0,37.298 10.6299,0 0,37.2979 -10.6299,0 0,37.298 10.6299,0 0,37.298 -10.6299,0 0,37.2979 10.6299,0 0,37.298 -10.6299,0 0,37.298 10.6299,0 0,37.298 -10.6299,0 0,37.2979 10.6299,0 0,37.298 -10.6299,0 0,37.298 10.6299,0 0,37.2979 -10.6299,0 0,37.298 10.6299,0 0,37.298 -10.6299,0 0,37.2979 10.6299,0 0,37.298"
       id="path4446"
       inkscape:connector-curvature="0" />
    <path
       transform="translate(0,2065.7481)"
       sodipodi:nodetypes="cccccccccccccccccccccccccccccccccccccccccccccccccccccccccccccccccccccccccccccccccccccccccccccccccccccccccccccccccccccc"
       inkscape:connector-curvature="0"
       d="m -2137.0756,-315.29433 37.298,0 0,10.6299 37.2979,0 0,-10.6299 37.298,0 0,10.6299 37.298,0 0,-10.6299 37.2979,0 0,10.6299 37.298,0 0,-10.6299 37.298,0 0,10.6299 37.2979,0 0,-10.6299 37.298,0 0,10.6299 37.298,0 0,-10.6299 37.298,0 0,10.6299 37.2979,0 0,-10.6299 37.298,0 0,10.6299 37.298,0 0,-10.6299 37.2979,0 0,10.6299 37.298,0 0,-10.6299 37.298,0 0,10.6299 37.2979,0 0,-10.6299 37.298,0 m 0,314.960576 0,67.6417 m 0,-382.602276 0,39.3701 -10.6299,0 0,39.37 10.6299,0 0,39.3701 -10.6299,0 0,39.3701 10.6299,0 0,39.3701 -10.6299,0 0,39.369976 10.6299,0 0,39.3701 -10.6299,0 0,39.3701 10.6299,0 m -708.6614,0 0,67.6417 m 0,0 10.63,0 0,36.012904 -10.63,0 0,36.0129 10.63,0 0,36.0128 -10.63,0 0,36.0129 10.63,0 0,36.0129 -10.63,0 0,36.0129 10.63,0 0,36.0129 -10.63,0 0,36.0129 10.63,0 0,36.0129 -10.63,0 0,36.0128 708.6614,0 0,-36.0128 -10.6299,0 0,-36.0129 10.6299,0 0,-36.0129 -10.6299,0 0,-36.0129 10.6299,0 0,-36.0129 -10.6299,0 0,-36.0129 10.6299,0 0,-36.0129 -10.6299,0 0,-36.0128 10.6299,0 0,-36.0129 -10.6299,0 0,-36.012904 10.6299,0 m -708.6614,-382.602276 0,39.3701 10.63,0 0,39.37 -10.63,0 0,39.3701 10.63,0 0,39.3701 -10.63,0 0,39.3701 10.63,0 0,39.369976 -10.63,0 0,39.3701 10.63,0 0,39.3701 -10.63,0"
       style="fill:none;stroke:#ff0000"
       id="path4451" />
    <path
       transform="translate(0,2065.7481)"
       style="fill:none;stroke:#ff0000"
       id="path4215"
       d="m -734.41247,-1230.7853 -39.3701,0 0,-10.6299 -39.37,0 0,10.6299 -39.3701,0 0,-10.6299 -39.3701,0 0,10.6299 -39.3701,0 0,-10.6299 -39.37,0 0,10.6299 -39.37013,0 0,-10.6299 -39.3701,0 0,10.6299 -39.3701,0"
       inkscape:connector-curvature="0"
       sodipodi:nodetypes="cccccccccccccccccc" />
    <path
       transform="translate(0,2065.7481)"
       sodipodi:nodetypes="cc"
       inkscape:connector-curvature="0"
       id="path4217"
       d="m -766.55917,-870.85216 c 19.8907,-11.6694 32.2958,-32.9641 32.1454,-56.0247"
       style="fill:none;fill-opacity:1;stroke:#ff0000;stroke-width:0.83391458;stroke-miterlimit:4;stroke-dasharray:none;stroke-dashoffset:0;stroke-opacity:1" />
    <path
       transform="translate(0,2065.7481)"
       id="path4219"
       style="fill:none;stroke:#ff0000"
       d="m -734.41247,-1230.7853 0,28.7394 10.6299,0 0,39.37 -10.6299,0 0,39.3701 10.6299,0 0,39.3701 -10.6299,0 0,39.3701 10.6299,0 0,39.37 -10.6299,0 0,39.37014 10.6299,0 0,39.3701 -10.6299,0 m -32.1467,55.6032 4.7916,9.4887 -32.1468,16.2332 -4.7915,-9.4888 -32.1468,16.2331 4.7915,9.4888 -32.1467,16.2331 -4.7916,-9.4888 -32.1467,16.2331 4.7915,9.4888 -32.1468,16.2331 -4.7915,-9.4887 -32.1468,16.2331 4.7915,9.4888 -32.1466,16.233 -4.7916,-9.4887 -32.14673,16.2331 4.7915,9.4888 -32.1468,16.2331 -4.7915,-9.4889 -32.1468,16.2408 -0.7164,0 0,-36.8395 -10.6299,0 0,-35.433 10.6299,0 0,-35.4331 -10.6299,0 0,-35.4331 10.6299,0 0,-35.433 -10.6299,0 0,-35.4331 10.6299,0 0,-35.4331 -10.6299,0 0,-35.43312 10.6299,0 0,-35.43302 -10.6299,0 0,-35.4331 10.6299,0 0,-35.4331 -10.6299,0 0,-35.433 10.6299,0 0,-35.4331 -10.6299,0 0,-35.4331 10.6299,0 0,-24.8024"
       inkscape:connector-curvature="0"
       sodipodi:nodetypes="cccccccccccccccccccccccccccccccccccccccccccccccccccccccccccccccccccc" />
  </g>
</svg>
